<svg width="48" height="48" viewBox="0 0 48 48" fill="none" xmlns="http://www.w3.org/2000/svg">
<g id="Group">
<path id="Vector" d="M1.93876 30.507C3.72593 37.3611 8.79622 43.4058 15.6537 46.8307C21.2366 40.4471 24.7789 30.5867 25.4421 28.6467C25.4898 28.5061 25.5385 28.3632 25.5894 28.2193C26.2826 26.2217 27.0676 23.9573 25.5673 22.4569C23.7613 20.651 21.4094 20.6521 19.5757 22.4592C15.9106 26.0745 7.4564 30.301 1.94098 30.507H1.93876ZM15.7777 48C15.6991 48 15.6215 47.9822 15.5507 47.9479C11.653 46.0688 8.34998 43.4656 5.73456 40.2124C3.30405 37.1873 1.58443 33.6937 0.762819 30.1039C0.74531 30.0261 0.745743 29.9454 0.764083 29.8678C0.782424 29.7903 0.818191 29.7179 0.868671 29.6562C0.919151 29.5945 0.983018 29.5452 1.05543 29.5118C1.12783 29.4785 1.20688 29.4621 1.28657 29.4639C3.60745 29.5281 6.96365 28.6467 10.4959 27.0544C13.8732 25.5308 16.9913 23.5343 18.8371 21.714C21.0861 19.4972 24.0868 19.4983 26.3058 21.7162C28.2702 23.6816 27.3312 26.3878 26.5771 28.5614L26.431 28.9866C25.4698 31.7992 21.8911 41.4692 16.1664 47.8272C16.1172 47.8815 16.0572 47.925 15.9903 47.9547C15.9234 47.9845 15.8509 47.9999 15.7777 48Z" fill="#EBF855"/>
<path id="Vector_2" d="M6.01695 32.2698C5.88845 32.2658 5.76588 32.2147 5.6725 32.1264C5.57912 32.038 5.52143 31.9184 5.51037 31.7903C5.49931 31.6622 5.53565 31.5345 5.61249 31.4315C5.68934 31.3284 5.80134 31.2571 5.92726 31.2311C8.77632 30.724 12.3008 29.3133 15.3559 27.4553C15.4146 27.414 15.4812 27.3853 15.5515 27.3708C15.6219 27.3564 15.6944 27.3565 15.7647 27.3712C15.8349 27.3858 15.9015 27.4148 15.9601 27.4562C16.0187 27.4976 16.0683 27.5506 16.1056 27.6119C16.1429 27.6733 16.1673 27.7416 16.1772 27.8127C16.187 27.8838 16.1822 27.9562 16.163 28.0254C16.1438 28.0945 16.1106 28.159 16.0655 28.2149C16.0204 28.2707 15.9642 28.3167 15.9006 28.35C12.7404 30.2711 9.07972 31.7338 6.10997 32.262C6.07961 32.2672 6.04886 32.2698 6.01806 32.2698H6.01695ZM15.512 41.7637C15.4151 41.7633 15.3201 41.7362 15.2377 41.6852C15.1553 41.6342 15.0886 41.5614 15.0451 41.4748C15.0015 41.3882 14.9827 41.2913 14.9909 41.1947C14.999 41.0982 15.0338 41.0057 15.0912 40.9277C16.5074 39.0143 17.8605 36.6945 19.1129 34.0348C19.3676 33.4955 19.6156 32.9441 19.8515 32.3982C19.9115 32.2784 20.0151 32.1861 20.141 32.1402C20.2669 32.0943 20.4056 32.0983 20.5287 32.1514C20.6517 32.2045 20.7498 32.3027 20.8028 32.4258C20.8558 32.5489 20.8597 32.6876 20.8137 32.8134C20.5734 33.3704 20.3198 33.9318 20.0607 34.4821C18.7796 37.2028 17.3899 39.5812 15.9328 41.5511C15.8843 41.6171 15.8209 41.6708 15.7478 41.7078C15.6747 41.7447 15.5939 41.7639 15.512 41.7637ZM26.8595 24.2895C26.7555 24.29 26.6537 24.2595 26.5672 24.2019C26.4806 24.1443 26.4131 24.0622 26.3733 23.9662C26.3335 23.8701 26.3232 23.7643 26.3438 23.6624C26.3643 23.5604 26.4147 23.4669 26.4886 23.3937L45.7975 4.08587C46.174 3.70939 46.2936 3.25318 46.153 2.73165C45.9536 1.98866 45.2704 1.30324 44.5263 1.10393C44.0059 0.964411 43.5486 1.084 43.1732 1.46048L23.6273 21.0053C23.5279 21.0986 23.3961 21.1495 23.2598 21.1474C23.1235 21.1452 22.9934 21.0901 22.897 20.9937C22.8006 20.8973 22.7455 20.7672 22.7434 20.6309C22.7412 20.4946 22.7922 20.3628 22.8854 20.2634L42.4336 0.7197C43.0736 0.0774706 43.914 -0.143988 44.7999 0.0918654C45.8994 0.387512 46.8727 1.36082 47.1672 2.46036C47.4042 3.3462 47.1816 4.18552 46.5394 4.82665L27.2304 24.1356C27.182 24.1844 27.1244 24.2232 27.0609 24.2496C26.9975 24.276 26.9283 24.2896 26.8595 24.2895Z" fill="#EBF855"/>
</g>
</svg>
