<svg width="48" height="46" viewBox="0 0 48 46" fill="none" xmlns="http://www.w3.org/2000/svg">
<g id="Group">
<path id="Vector" d="M1.06743 44.709H33.8665C33.7827 44.0735 33.5503 43.4667 33.1881 42.9378C32.8258 42.4089 32.3441 41.9729 31.7818 41.6651C31.2195 41.3572 30.5926 41.1863 29.9519 41.1661C29.3112 41.1459 28.6748 41.277 28.0942 41.5488C28.0308 41.5792 27.9618 41.5965 27.8916 41.5996C27.8213 41.6026 27.7511 41.5914 27.6853 41.5665C27.6194 41.5417 27.5593 41.5038 27.5086 41.455C27.4578 41.4063 27.4175 41.3478 27.39 41.283C26.6181 39.4927 25.3386 37.9678 23.7096 36.8966C22.0806 35.8255 20.1734 35.2552 18.2238 35.2561C16.8544 35.2582 15.5 35.5413 14.2443 36.0877C12.9886 36.6341 11.8584 37.4323 10.9234 38.4329C10.8546 38.5072 10.7655 38.5599 10.6672 38.5845C10.5689 38.6091 10.4655 38.6045 10.3698 38.5713C9.35156 38.2245 8.26747 38.1154 7.20055 38.2522C6.13363 38.3891 5.11217 38.7683 4.21442 39.3608C3.31666 39.9533 2.56641 40.7434 2.02113 41.6706C1.47585 42.5978 1.15 43.6375 1.06854 44.7101L1.06743 44.709ZM34.4235 45.7576H0.523749C0.454969 45.7576 0.386863 45.7441 0.323319 45.7177C0.259775 45.6914 0.202037 45.6528 0.153403 45.6042C0.104768 45.5556 0.0661889 45.4978 0.039868 45.4343C0.0135472 45.3708 0 45.3026 0 45.2339C0 40.7737 3.6286 37.1451 8.08766 37.1451C8.87162 37.1451 9.64341 37.2569 10.3886 37.4773C11.415 36.4432 12.6355 35.622 13.9801 35.0609C15.3247 34.4998 16.7668 34.2097 18.2238 34.2075C20.2905 34.2065 22.3159 34.7866 24.0687 35.8817C25.8214 36.9768 27.2309 38.5427 28.1363 40.4005C28.908 40.1318 29.7328 40.0515 30.5418 40.1664C31.3509 40.2812 32.1207 40.5879 32.7872 41.0608C33.4536 41.5337 33.9973 42.1591 34.3728 42.8848C34.7484 43.6106 34.945 44.4156 34.9461 45.2328C34.9463 45.3015 34.9329 45.3697 34.9067 45.4333C34.8805 45.4969 34.842 45.5547 34.7935 45.6034C34.745 45.6522 34.6873 45.6909 34.6238 45.7173C34.5603 45.7438 34.4923 45.7575 34.4235 45.7576ZM4.93077 16.3878C4.24425 18.32 3.87552 20.745 4.71153 22.3561C5.18213 23.263 6.01481 23.8864 7.19075 24.2141C8.01015 23.3106 8.38331 22.3395 8.29805 21.3208C8.14745 19.5115 6.54077 17.6568 4.93077 16.3878ZM7.35906 25.3192C7.31965 25.32 7.28027 25.3162 7.24169 25.3081C5.6029 24.9339 4.43803 24.1034 3.7814 22.8389C2.40836 20.1925 3.74818 16.4653 4.19331 15.3857L4.20439 15.3569C4.23404 15.2831 4.28012 15.217 4.33912 15.1637C4.39812 15.1103 4.4685 15.0711 4.54492 15.049C4.62133 15.0269 4.70178 15.0225 4.78014 15.0362C4.85851 15.0498 4.93274 15.0811 4.99721 15.1277L5.02268 15.1465C5.97384 15.8231 9.09308 18.2636 9.34222 21.2333C9.46181 22.654 8.91813 23.9772 7.7289 25.1664C7.6307 25.2643 7.49771 25.3192 7.35906 25.3192Z" fill="#EBF855"/>
<path id="Vector_2" d="M10.5403 38.6001C10.4581 38.6002 10.377 38.5809 10.3036 38.5439C10.2303 38.5068 10.1666 38.453 10.1179 38.3868C10.0692 38.3206 10.0367 38.2439 10.0231 38.1628C10.0096 38.0818 10.0153 37.9987 10.0398 37.9202C10.7259 35.7154 10.8041 33.3664 10.2662 31.1208C9.7283 28.8753 8.59422 26.8166 6.98363 25.162C6.89642 25.0608 6.85107 24.9302 6.85681 24.7968C6.86255 24.6633 6.91895 24.5371 7.01451 24.4438C7.11008 24.3505 7.23763 24.2971 7.37118 24.2945C7.50472 24.292 7.63421 24.3405 7.73327 24.4301C8.53716 25.2528 9.23697 26.1796 9.8183 27.1839C10.7721 28.8418 11.3729 30.6789 11.5831 32.58C11.7932 34.4811 11.6082 36.4051 11.0396 38.2314C11.0064 38.3379 10.9401 38.4312 10.8503 38.4975C10.7605 38.5638 10.6519 38.5997 10.5403 38.6001Z" fill="#EBF855"/>
<path id="Vector_3" d="M11.6155 32.8543C12.4039 33.1688 13.1082 33.1777 13.7615 32.8831C14.9175 32.3594 15.7801 30.8955 16.275 29.5136C14.8079 29.5391 13.1436 29.8857 12.2777 30.8136C11.7883 31.3385 11.5701 32.0073 11.6155 32.8543ZM12.7738 34.1454C12.1714 34.1454 11.5436 33.9904 10.8947 33.6826C10.8148 33.6444 10.7459 33.5866 10.6943 33.5146C10.6428 33.4426 10.6104 33.3586 10.6002 33.2707C10.4474 31.9763 10.7541 30.9088 11.5115 30.0983C13.0772 28.4219 16.1001 28.4329 16.9881 28.4772H17.0114C17.0912 28.4801 17.1692 28.5013 17.2396 28.539C17.3099 28.5768 17.3707 28.6302 17.4172 28.6951C17.4637 28.76 17.4947 28.8347 17.5078 28.9134C17.521 28.9921 17.5159 29.0729 17.4931 29.1493L17.4864 29.1704C17.2428 30.0263 16.2828 32.8931 14.1922 33.8365C13.7382 34.0436 13.2643 34.1454 12.7738 34.1454Z" fill="#EBF855"/>
<path id="Vector_4" d="M5.3416 30.5921C6.09788 31.8511 7.23064 33.119 8.46637 33.4047C9.16618 33.5674 9.85381 33.4213 10.5647 32.9584C10.4429 32.118 10.0996 31.5034 9.51719 31.086C8.48741 30.3452 6.78661 30.3308 5.3416 30.5921ZM9.01448 34.5164C8.75316 34.5164 8.49184 34.4865 8.22941 34.4267C5.9949 33.9085 4.49452 31.2853 4.08814 30.4925L4.07707 30.4737C4.03974 30.4031 4.01906 30.325 4.0166 30.2452C4.01415 30.1655 4.02999 30.0862 4.06292 30.0135C4.09584 29.9408 4.14497 29.8767 4.20654 29.8259C4.26811 29.7751 4.34048 29.7392 4.41811 29.7207L4.43915 29.7152C5.30284 29.4992 8.26485 28.8969 10.1284 30.2345C11.0286 30.8823 11.5391 31.8689 11.6421 33.1677C11.6492 33.256 11.6338 33.3446 11.5974 33.4253C11.561 33.5061 11.5048 33.5763 11.4339 33.6294C10.6411 34.2196 9.83056 34.5175 9.01338 34.5175L9.01448 34.5164ZM40.2058 13.8322C40.1134 13.8323 40.0225 13.8083 39.9423 13.7624L37.0854 12.1126C36.9692 12.0451 36.8832 11.9356 36.8453 11.8066C36.8074 11.6776 36.8204 11.539 36.8817 11.4194C37.2659 10.6697 37.5693 10.0408 37.6856 9.33878C37.7797 8.76631 37.7764 8.14291 37.7598 7.55162C37.6601 4.1478 38.8881 1.71286 41.4094 0.314355C41.4885 0.270381 41.5776 0.247671 41.668 0.248448C41.7584 0.249224 41.8471 0.273459 41.9254 0.318784L42.8821 0.871323C42.9947 0.944578 43.075 1.05822 43.1063 1.18885C43.1376 1.31949 43.1177 1.45716 43.0505 1.57353C42.9834 1.68989 42.8742 1.77609 42.7455 1.81437C42.6167 1.85265 42.4782 1.8401 42.3584 1.7793L41.6641 1.37846C39.6566 2.60534 38.722 4.61729 38.8073 7.52172C38.8261 8.16395 38.8283 8.85047 38.7187 9.51041C38.6046 10.2058 38.3577 10.8026 38.0388 11.4526L40.0386 12.6075C40.4416 12.0063 40.8358 11.4936 41.3806 11.0462C41.8977 10.621 42.4924 10.2811 43.0593 9.97658C45.6171 8.59801 46.8905 6.78205 46.9503 4.42905L46.256 4.02932C46.1964 3.99486 46.1442 3.94899 46.1023 3.89433C46.0604 3.83968 46.0297 3.77731 46.0119 3.71078C45.9941 3.64426 45.9896 3.57488 45.9986 3.50661C46.0076 3.43834 46.03 3.37252 46.0645 3.3129C46.0989 3.25328 46.1448 3.20104 46.1995 3.15914C46.2541 3.11725 46.3165 3.08653 46.383 3.06875C46.4495 3.05096 46.5189 3.04645 46.5872 3.05547C46.6554 3.0645 46.7213 3.08688 46.7809 3.12134L47.7376 3.67499C47.8156 3.72011 47.8806 3.78457 47.9264 3.86216C47.9721 3.93975 47.9971 4.02784 47.9989 4.1179C48.0487 7.00129 46.5539 9.28342 43.5565 10.899C43.036 11.178 42.4935 11.488 42.045 11.8557C41.4958 12.3085 41.1016 12.8854 40.6443 13.5941C40.5967 13.6674 40.5316 13.7275 40.4548 13.7691C40.378 13.8107 40.292 13.8324 40.2047 13.8322H40.2058Z" fill="#EBF855"/>
<path id="Vector_5" d="M44.9782 3.47124C45.1886 3.59305 45.4255 3.63623 45.6415 3.59415C45.7281 3.58055 45.8107 3.54837 45.8837 3.49983C45.9567 3.45128 46.0184 3.38751 46.0644 3.3129C46.1058 3.23581 46.1301 3.15071 46.1357 3.06339C46.1412 2.97606 46.1279 2.88857 46.0966 2.80687C46.0167 2.58887 45.8611 2.40688 45.6581 2.29419L44.1599 1.42829C43.9608 1.30892 43.7252 1.26565 43.4966 1.30649C43.4102 1.31983 43.3277 1.3518 43.2549 1.40017C43.182 1.44854 43.1206 1.51216 43.0748 1.58663C42.8898 1.90553 43.0748 2.37281 43.4811 2.60645L44.9782 3.47124ZM45.4765 4.65826C45.1255 4.65826 44.7733 4.56303 44.4544 4.37812L42.9563 3.51443C42.045 2.98736 41.6906 1.88782 42.1668 1.06288C42.2871 0.857811 42.4505 0.681305 42.6457 0.545567C42.8409 0.409829 43.0632 0.318095 43.2973 0.276707C43.7635 0.188124 44.2551 0.273385 44.6836 0.521419L46.1829 1.38511C46.6114 1.63425 46.9326 2.01626 47.0865 2.46472C47.2503 2.93864 47.2094 3.42695 46.9713 3.83776C46.8515 4.04304 46.6884 4.21973 46.4934 4.35551C46.2983 4.49129 46.076 4.5829 45.8419 4.62394C45.7201 4.64608 45.5983 4.65826 45.4765 4.65826ZM43.2874 10.961C40.869 10.961 39.0331 9.89686 37.8284 7.79744C37.7592 7.67688 37.7408 7.53379 37.7771 7.39965C37.8135 7.2655 37.9016 7.15128 38.0222 7.08212C38.1427 7.01296 38.2858 6.99453 38.42 7.03087C38.5541 7.06721 38.6683 7.15535 38.7375 7.2759C39.7562 9.05089 41.2444 9.91347 43.2885 9.91347H43.3073C43.4462 9.91318 43.5795 9.96808 43.678 10.0661C43.7764 10.1641 43.8318 10.2972 43.8321 10.4361C43.8324 10.575 43.7775 10.7084 43.6795 10.8068C43.5815 10.9052 43.4484 10.9607 43.3095 10.961H43.2874ZM35.9837 21.1436C35.8915 21.1436 35.8009 21.1191 35.7212 21.0728L32.8644 19.4229C32.8049 19.3886 32.7528 19.3429 32.7109 19.2885C32.6691 19.234 32.6384 19.1718 32.6206 19.1055C32.6028 19.0392 32.5983 18.97 32.6073 18.9019C32.6162 18.8338 32.6385 18.7682 32.6729 18.7087L36.8938 11.3972C36.9671 11.2846 37.0807 11.2044 37.2114 11.1731C37.342 11.1417 37.4797 11.1617 37.5961 11.2288C37.7124 11.2959 37.7986 11.4051 37.8369 11.5339C37.8752 11.6627 37.8626 11.8012 37.8018 11.921L33.8422 18.7785L35.7921 19.9035L39.7518 13.046C39.8212 12.9256 39.9357 12.8377 40.0699 12.8017C40.2042 12.7657 40.3472 12.7844 40.4676 12.8539C40.588 12.9233 40.6759 13.0378 40.712 13.172C40.748 13.3063 40.7292 13.4493 40.6597 13.5697L36.4376 20.8823C36.3918 20.9621 36.3257 21.0283 36.2459 21.0742C36.1662 21.1202 36.0757 21.1441 35.9837 21.1436Z" fill="#EBF855"/>
<path id="Vector_6" d="M26.2949 34.6271C26.2149 34.6273 26.136 34.6092 26.0641 34.5741C25.9922 34.539 25.9294 34.4878 25.8804 34.4246C25.8314 34.3614 25.7976 34.2878 25.7815 34.2094C25.7655 34.1311 25.7676 34.0501 25.7878 33.9727L27.3203 28.0188C27.3317 27.9726 27.3496 27.9283 27.3734 27.887L32.6729 18.7076C32.7424 18.5872 32.8568 18.4993 32.991 18.4633C33.1253 18.4272 33.2684 18.446 33.3888 18.5155C33.5092 18.5849 33.5971 18.6994 33.6331 18.8336C33.6691 18.9679 33.6503 19.1109 33.5809 19.2313L28.3179 28.3488L27.2704 32.4114L30.2668 29.4749L35.5297 20.3586C35.5992 20.2381 35.7136 20.1503 35.8479 20.1142C35.9821 20.0782 36.1252 20.097 36.2456 20.1664C36.366 20.2359 36.4539 20.3503 36.4899 20.4846C36.5259 20.6188 36.5071 20.7619 36.4377 20.8823L31.1382 30.0618C31.114 30.1023 31.0846 30.1396 31.0507 30.1725L26.6614 34.4765C26.5637 34.5729 26.4321 34.627 26.2949 34.6271Z" fill="#EBF855"/>
<path id="Vector_7" d="M17.0213 35.3236C16.9293 35.3237 16.8388 35.2996 16.759 35.2536C16.6793 35.2077 16.6131 35.1415 16.567 35.0618C16.521 34.9821 16.4968 34.8916 16.4968 34.7996C16.4969 34.7075 16.5212 34.6171 16.5673 34.5374L21.1781 26.5539C21.858 25.3757 23.4812 25.0335 24.7934 25.792L28.0898 27.6955C28.1509 27.729 28.2048 27.7745 28.2481 27.8291C28.2915 27.8837 28.3235 27.9465 28.3422 28.0136C28.361 28.0808 28.3662 28.151 28.3574 28.2202C28.3487 28.2894 28.3262 28.3562 28.2914 28.4166C28.2565 28.477 28.2099 28.5298 28.1543 28.5719C28.0988 28.6141 28.0353 28.6447 27.9678 28.662C27.9002 28.6793 27.8299 28.6829 27.7609 28.6727C27.6919 28.6625 27.6257 28.6385 27.566 28.6023L24.2696 26.7C23.4569 26.2305 22.4769 26.3988 22.085 27.0765L17.4753 35.0612C17.4294 35.141 17.3632 35.2072 17.2835 35.2533C17.2038 35.2994 17.1134 35.3236 17.0213 35.3236ZM31.26 41.3916C31.1678 41.392 31.0771 41.3681 30.9972 41.3222C30.9172 41.2763 30.8508 41.2101 30.8047 41.1303C30.7586 41.0505 30.7345 40.9599 30.7347 40.8677C30.7349 40.7755 30.7595 40.685 30.806 40.6054L34.4833 34.2351C34.666 33.9196 34.6937 33.5353 34.5619 33.1511C34.4101 32.728 34.1105 32.374 33.7182 32.1545L30.4229 30.2522C30.3025 30.1828 30.2146 30.0683 30.1785 29.9341C30.1425 29.7998 30.1613 29.6568 30.2307 29.5363C30.3002 29.4159 30.4146 29.3281 30.5489 29.292C30.6831 29.256 30.8262 29.2748 30.9466 29.3442L34.2419 31.2477C34.8653 31.6075 35.3315 32.1634 35.5529 32.8123C35.7855 33.4866 35.7268 34.1787 35.3913 34.7589L31.714 41.1291C31.668 41.2089 31.6019 41.2752 31.5222 41.3213C31.4425 41.3673 31.352 41.3916 31.26 41.3916Z" fill="#EBF855"/>
</g>
</svg>
