<svg width="46" height="64" viewBox="0 0 46 64" fill="none" xmlns="http://www.w3.org/2000/svg">
<g id="Group">
<path id="Vector" d="M44.9561 64.0015H1.04536C0.953406 64.0017 0.862318 63.9837 0.777326 63.9486C0.692333 63.9135 0.615109 63.862 0.550087 63.797C0.485065 63.732 0.433526 63.6547 0.398426 63.5697C0.363326 63.4848 0.345357 63.3937 0.345552 63.3017V54.4788C0.345552 51.467 1.35245 48.715 3.26142 46.5225C5.07738 44.4335 7.6463 42.9881 10.4913 42.4521C14.2044 41.7538 16.8102 38.7464 17.4628 34.4058C17.4718 34.3111 17.5 34.2192 17.5457 34.1357C17.5913 34.0523 17.6536 33.979 17.7285 33.9204C17.8035 33.8618 17.8896 33.8191 17.9817 33.7949C18.0737 33.7708 18.1697 33.7656 18.2637 33.7798C18.3578 33.794 18.448 33.8272 18.5289 33.8774C18.6097 33.9276 18.6794 33.9938 18.7338 34.0718C18.7881 34.1499 18.826 34.2383 18.8451 34.3315C18.8642 34.4247 18.864 34.5208 18.8447 34.614C18.1006 39.5673 15.074 43.0102 10.7497 43.8252C5.36085 44.8395 1.74369 49.1195 1.74369 54.4788V62.6049H44.2563V54.4788C44.2563 49.1195 40.6362 44.838 35.2489 43.8252C30.926 43.0102 27.8979 39.5673 27.1553 34.6125C27.1421 34.4363 27.196 34.2617 27.3062 34.1236C27.4164 33.9855 27.5748 33.8942 27.7495 33.8681C27.9243 33.8419 28.1024 33.8828 28.2482 33.9825C28.3941 34.0823 28.4968 34.2335 28.5357 34.4058C29.1883 38.7449 31.7941 41.7538 35.5072 42.4521C38.3537 42.9881 40.9212 44.4335 42.7386 46.5225C44.6461 48.715 45.6545 51.4655 45.6545 54.4788V63.3032C45.6545 63.4884 45.5809 63.666 45.4499 63.797C45.319 63.9279 45.1413 64.0015 44.9561 64.0015Z" fill="#EBF855"/>
<path id="Vector_2" d="M12.7738 16.7407C12.7487 17.0699 12.7487 17.4051 12.7738 17.7491L13.4603 27.0695C13.8486 32.3683 18.6779 34.7822 22.9993 34.7822C27.3207 34.7822 32.1499 32.3683 32.5397 27.071L33.2262 17.7491C33.2498 17.4066 33.2498 17.0699 33.2262 16.7407C30.6868 17.3386 26.9516 17.6885 22.9993 17.6885C19.0484 17.6885 15.3117 17.3386 12.7738 16.7407ZM22.9993 36.1788C18.0534 36.1788 12.5213 33.3604 12.0651 27.1729L11.3801 17.8524C11.325 17.1423 11.3673 16.428 11.5056 15.7294C11.5254 15.6352 11.5644 15.5461 11.6201 15.4675C11.6758 15.389 11.7471 15.3228 11.8294 15.273C11.9118 15.2231 12.0035 15.1908 12.0989 15.1778C12.1943 15.1649 12.2914 15.1717 12.384 15.1979C14.7772 15.8814 18.7473 16.2904 22.9993 16.2904C27.2513 16.2904 31.2213 15.8814 33.6175 15.1979C33.7099 15.1715 33.8068 15.1646 33.9021 15.1774C33.9974 15.1903 34.089 15.2226 34.1712 15.2725C34.2534 15.3224 34.3244 15.3888 34.3798 15.4674C34.4351 15.546 34.4737 15.6352 34.493 15.7294C34.6303 16.4056 34.6716 17.1201 34.6184 17.8524L33.9334 27.1729C33.4772 33.3604 27.9466 36.1788 22.9993 36.1788Z" fill="#EBF855"/>
<path id="Vector_3" d="M22.9993 17.6872C19.4515 17.6872 16.1075 17.4155 13.5858 16.9165C10.5784 16.323 9.17731 15.5228 9.17731 14.3992C9.17731 13.6581 9.68223 12.5818 14.0287 11.7978C14.1191 11.7815 14.2118 11.783 14.3015 11.8025C14.3912 11.8219 14.4763 11.8588 14.5517 11.9111C14.6272 11.9634 14.6916 12.0301 14.7414 12.1073C14.7911 12.1845 14.8251 12.2707 14.8415 12.3611C14.8579 12.4514 14.8563 12.5441 14.8368 12.6339C14.8174 12.7236 14.7805 12.8086 14.7282 12.8841C14.6759 12.9596 14.6092 13.024 14.532 13.0737C14.4548 13.1234 14.3686 13.1575 14.2782 13.1738C11.7329 13.6315 10.8117 14.1689 10.6065 14.3992C10.8117 14.6296 11.7329 15.167 14.2768 15.6246C16.6596 16.0557 19.7556 16.292 22.9993 16.292C26.2429 16.292 29.3389 16.0557 31.7218 15.6246C34.2671 15.167 35.1869 14.6296 35.3935 14.3992C35.1869 14.1689 34.2656 13.6315 31.7218 13.1738C31.5462 13.1339 31.3927 13.0277 31.2934 12.8775C31.194 12.7273 31.1564 12.5446 31.1884 12.3673C31.2203 12.1901 31.3194 12.032 31.4649 11.9259C31.6105 11.8199 31.7913 11.774 31.9698 11.7978C36.3178 12.5803 36.8212 13.6581 36.8212 14.3992C36.8212 15.5228 35.4201 16.323 32.4127 16.9165C29.8925 17.4155 26.55 17.6886 22.9993 17.6886V17.6872ZM39.6013 64.0015C39.5093 64.0017 39.4182 63.9837 39.3332 63.9486C39.2482 63.9135 39.171 63.862 39.106 63.797C39.041 63.7319 38.9894 63.6547 38.9543 63.5697C38.9192 63.4847 38.9013 63.3936 38.9015 63.3017V54.2765C38.9015 53.2814 38.0909 52.4709 37.0944 52.4709H8.90417C7.90909 52.4709 7.09855 53.2814 7.09855 54.2765V63.3017C7.09855 63.4871 7.0249 63.6649 6.8938 63.796C6.7627 63.9271 6.58488 64.0007 6.39948 64.0007C6.21407 64.0007 6.03626 63.9271 5.90516 63.796C5.77406 63.6649 5.70041 63.4871 5.70041 63.3017V54.2765C5.70041 52.5093 7.13694 51.0727 8.90417 51.0727H37.0944C38.8616 51.0727 40.2981 52.5093 40.2981 54.2765V63.3017C40.2981 63.4866 40.2247 63.664 40.0941 63.795C39.9635 63.9259 39.7862 64.0011 39.6013 64.0015Z" fill="#EBF855"/>
<path id="Vector_4" d="M32.9176 52.4709C32.8257 52.4711 32.7346 52.4531 32.6496 52.418C32.5646 52.3829 32.4874 52.3314 32.4224 52.2663C32.3574 52.2013 32.3058 52.1241 32.2707 52.0391C32.2356 51.9541 32.2176 51.863 32.2178 51.7711V42.2986C32.2178 42.1131 32.2915 41.9353 32.4226 41.8042C32.5537 41.6731 32.7315 41.5995 32.9169 41.5995C33.1023 41.5995 33.2801 41.6731 33.4112 41.8042C33.5423 41.9353 33.616 42.1131 33.616 42.2986V51.7711C33.616 51.9563 33.5424 52.1339 33.4114 52.2649C33.2805 52.3958 33.1029 52.4709 32.9176 52.4709ZM37.0958 52.4709C37.0039 52.4711 36.9128 52.4531 36.8278 52.418C36.7428 52.3829 36.6656 52.3314 36.6006 52.2663C36.5355 52.2013 36.484 52.1241 36.4489 52.0391C36.4138 51.9541 36.3958 51.863 36.396 51.7711V43.5845C36.396 43.3993 36.4696 43.2217 36.6006 43.0907C36.7315 42.9597 36.9091 42.8862 37.0944 42.8862C37.2796 42.8862 37.4572 42.9597 37.5881 43.0907C37.7191 43.2217 37.7927 43.3993 37.7927 43.5845V51.7711C37.7923 51.9562 37.7186 52.1336 37.5877 52.2644C37.4568 52.3953 37.2794 52.469 37.0944 52.4694L37.0958 52.4709ZM8.90417 52.4709C8.81234 52.4709 8.72142 52.4528 8.63659 52.4176C8.55177 52.3824 8.47472 52.3308 8.40986 52.2658C8.34499 52.2008 8.29358 52.1237 8.25857 52.0388C8.22357 51.9539 8.20565 51.8629 8.20584 51.7711V43.5845C8.20584 43.3993 8.27942 43.2217 8.41038 43.0907C8.54134 42.9597 8.71896 42.8862 8.90417 42.8862C9.08938 42.8862 9.26701 42.9597 9.39797 43.0907C9.52893 43.2217 9.60251 43.3993 9.60251 43.5845V51.7711C9.60251 51.9563 9.52893 52.1339 9.39797 52.2649C9.26701 52.3958 9.08938 52.4709 8.90417 52.4709ZM13.0824 52.4709C12.9904 52.4711 12.8993 52.4531 12.8143 52.418C12.7293 52.3829 12.6521 52.3314 12.5871 52.2663C12.5221 52.2013 12.4705 52.1241 12.4354 52.0391C12.4003 51.9541 12.3824 51.863 12.3825 51.7711V42.2986C12.3825 42.1131 12.4562 41.9353 12.5873 41.8042C12.7184 41.6731 12.8962 41.5995 13.0816 41.5995C13.267 41.5995 13.4448 41.6731 13.5759 41.8042C13.707 41.9353 13.7807 42.1131 13.7807 42.2986V51.7711C13.7807 51.8628 13.7626 51.9536 13.7275 52.0383C13.6924 52.123 13.641 52.2 13.5762 52.2649C13.5113 52.3297 13.4343 52.3811 13.3496 52.4162C13.2649 52.4513 13.1741 52.4709 13.0824 52.4709ZM33.4491 58.2347H12.5509C12.3735 58.2232 12.2072 58.1446 12.0856 58.0149C11.9641 57.8852 11.8965 57.7141 11.8965 57.5364C11.8965 57.3586 11.9641 57.1876 12.0856 57.0579C12.2072 56.9282 12.3735 56.8496 12.5509 56.838H33.4491C33.6344 56.838 33.812 56.9116 33.9429 57.0426C34.0739 57.1735 34.1475 57.3512 34.1475 57.5364C34.1475 57.7216 34.0739 57.8992 33.9429 58.0302C33.812 58.1611 33.6344 58.2347 33.4491 58.2347ZM22.9993 43.617C20.4481 43.617 17.8969 42.6234 15.3634 40.6406C15.2247 40.5238 15.1367 40.3578 15.118 40.1775C15.0992 39.9971 15.1512 39.8166 15.263 39.6738C15.3748 39.5311 15.5376 39.4372 15.7171 39.4121C15.8967 39.387 16.079 39.4326 16.2256 39.5392C20.7847 43.112 25.2168 43.112 29.7729 39.5392C29.919 39.4248 30.1045 39.3732 30.2886 39.3956C30.4727 39.4181 30.6404 39.5127 30.7547 39.6588C30.8691 39.8048 30.9207 39.9903 30.8983 40.1744C30.8759 40.3586 30.7812 40.5262 30.6351 40.6406C28.1031 42.6234 25.5505 43.617 22.9993 43.617ZM33.6529 24.5701C33.5702 24.5701 33.4875 24.5671 33.4049 24.5597C33.2292 24.5341 33.0698 24.4426 32.959 24.3039C32.8483 24.1652 32.7943 23.9895 32.8082 23.8125C32.8221 23.6355 32.9028 23.4704 33.0338 23.3507C33.1649 23.2309 33.3366 23.1654 33.5141 23.1675C34.7882 23.2679 35.3891 21.9421 35.522 20.7802C35.6888 19.2949 35.144 17.6133 33.8079 17.417C33.7171 17.4037 33.6297 17.3726 33.5509 17.3256C33.4721 17.2786 33.4033 17.2165 33.3484 17.1429C33.2936 17.0692 33.2538 16.9855 33.2313 16.8965C33.2088 16.8075 33.2041 16.715 33.2174 16.6241C33.2306 16.5333 33.2617 16.446 33.3087 16.3671C33.3557 16.2883 33.4178 16.2195 33.4915 16.1647C33.5651 16.1098 33.6488 16.07 33.7378 16.0475C33.8268 16.025 33.9193 16.0203 34.0102 16.0336C36.2395 16.3613 37.1549 18.7472 36.9098 20.9352C36.6603 23.1424 35.3685 24.5701 33.6529 24.5701ZM12.3471 24.5701C10.633 24.5701 9.33823 23.1424 9.08872 20.9352C8.84364 18.7472 9.76048 16.3613 11.9884 16.0336C12.1718 16.0068 12.3584 16.0539 12.5071 16.1647C12.6558 16.2754 12.7544 16.4407 12.7812 16.6241C12.808 16.8076 12.7608 16.9942 12.6501 17.1429C12.5393 17.2915 12.3741 17.3901 12.1906 17.417C10.856 17.6133 10.3097 19.2949 10.478 20.7802C10.6094 21.9436 11.2132 23.2664 12.4859 23.1675C12.5774 23.1603 12.6694 23.1712 12.7567 23.1996C12.844 23.228 12.9249 23.2733 12.9946 23.333C13.0644 23.3926 13.1218 23.4654 13.1634 23.5472C13.2051 23.629 13.2302 23.7182 13.2374 23.8097C13.2446 23.9012 13.2336 23.9933 13.2052 24.0806C13.1768 24.1679 13.1315 24.2487 13.0719 24.3185C13.0123 24.3883 12.9395 24.4456 12.8577 24.4873C12.7759 24.5289 12.6867 24.554 12.5951 24.5612C12.5126 24.5678 12.4299 24.5707 12.3471 24.5701ZM15.0238 11.9292C16.7394 12.2186 19.5829 12.5818 22.9993 12.5818C26.4156 12.5818 29.2592 12.2186 30.9747 11.9307L28.5564 2.83171C28.3276 1.95917 27.6927 1.39666 26.9412 1.39666H19.0573C18.3088 1.39666 17.6739 1.96065 17.4421 2.83024L15.0238 11.9292ZM22.9993 13.9785C19.9741 13.9785 16.7866 13.692 14.0243 13.1723C13.9299 13.1545 13.8401 13.1173 13.7607 13.0632C13.6812 13.0091 13.6138 12.9392 13.5625 12.8579C13.5113 12.7766 13.4773 12.6856 13.4628 12.5906C13.4482 12.4956 13.4534 12.3986 13.478 12.3057L16.0912 2.47148C16.484 0.995086 17.6784 0 19.0588 0H26.9412C28.3261 0 29.519 0.99361 29.9073 2.47443L32.5205 12.3072C32.5444 12.4 32.5491 12.4967 32.5342 12.5914C32.5194 12.686 32.4854 12.7767 32.4342 12.8577C32.383 12.9388 32.3158 13.0085 32.2367 13.0626C32.1576 13.1167 32.0683 13.154 31.9742 13.1723C29.2134 13.692 26.0244 13.9785 22.9993 13.9785Z" fill="#EBF855"/>
</g>
</svg>
