<svg width="64" height="62" viewBox="0 0 64 62" fill="none" xmlns="http://www.w3.org/2000/svg">
  <path d="M1.42324 59.9452H45.1554C45.0436 59.0979 44.7337 58.2888 44.2507 57.5836C43.7678 56.8785 43.1254 56.2971 42.3757 55.8866C41.626 55.4762 40.7901 55.2483 39.9359 55.2213C39.0816 55.1944 38.233 55.3692 37.459 55.7316C37.3744 55.7722 37.2825 55.7952 37.1887 55.7993C37.095 55.8034 37.0014 55.7884 36.9137 55.7553C36.8259 55.7221 36.7458 55.6716 36.6781 55.6066C36.6104 55.5416 36.5566 55.4636 36.52 55.3773C35.4908 52.9902 33.7849 50.9569 31.6128 49.5287C29.4408 48.1006 26.8979 47.3401 24.2984 47.3413C22.4725 47.3442 20.6666 47.7216 18.9924 48.4501C17.3182 49.1787 15.8112 50.2429 14.5646 51.577C14.4728 51.6762 14.3541 51.7465 14.223 51.7792C14.0919 51.812 13.9541 51.8059 13.8264 51.7616C12.4687 51.2992 11.0233 51.1537 9.60073 51.3362C8.17817 51.5186 6.81623 52.0242 5.61922 52.8142C4.42221 53.6043 3.42188 54.6578 2.69484 55.894C1.9678 57.1303 1.53333 58.5166 1.42472 59.9467L1.42324 59.9452ZM45.898 61.3434H0.698332C0.606626 61.3434 0.515818 61.3253 0.431092 61.2902C0.346366 61.2551 0.269383 61.2037 0.204537 61.1388C0.139691 61.074 0.0882518 60.997 0.0531574 60.9123C0.0180629 60.8275 0 60.7367 0 60.645C0 54.6981 4.83813 49.86 10.7835 49.86C11.8288 49.86 12.8579 50.0091 13.8515 50.3029C15.22 48.9242 16.8473 47.8293 18.6401 47.0811C20.4329 46.3329 22.3558 45.9462 24.2984 45.9431C27.0541 45.9418 29.7545 46.7154 32.0916 48.1755C34.4286 49.6356 36.3079 51.7234 37.5151 54.2006C38.544 53.8423 39.6437 53.7352 40.7225 53.8883C41.8012 54.0415 42.8277 54.4504 43.7162 55.0809C44.6048 55.7114 45.3297 56.5453 45.8305 57.513C46.3312 58.4806 46.5933 59.554 46.5948 60.6435C46.595 60.7353 46.5772 60.8261 46.5423 60.9109C46.5073 60.9957 46.4561 61.0728 46.3914 61.1378C46.3266 61.2028 46.2498 61.2544 46.1651 61.2896C46.0805 61.3249 45.9897 61.3432 45.898 61.3434ZM6.57436 22.1836C5.659 24.7599 5.16736 27.9932 6.28204 30.1413C6.9095 31.3505 8.01975 32.1817 9.58767 32.6187C10.6802 31.414 11.1777 30.1192 11.0641 28.7609C10.8633 26.3485 8.72103 23.8755 6.57436 22.1836ZM9.81208 34.0922C9.75953 34.0931 9.70703 34.0882 9.65559 34.0774C7.47053 33.5784 5.91737 32.4711 5.04187 30.785C3.21115 27.2565 4.99758 22.287 5.59109 20.8475L5.60585 20.8091C5.64539 20.7107 5.70682 20.6226 5.7855 20.5514C5.86417 20.4803 5.958 20.428 6.05989 20.3986C6.16178 20.3691 6.26903 20.3632 6.37352 20.3814C6.47801 20.3996 6.57699 20.4413 6.66294 20.5035L6.6969 20.5286C7.96512 21.4306 12.1241 24.6846 12.4563 28.6443C12.6157 30.5385 11.8908 32.3028 10.3052 33.8884C10.1743 34.0189 9.99694 34.0922 9.81208 34.0922Z" fill="#EBF855"/>
  <path d="M14.0538 51.7998C13.9442 51.7999 13.8361 51.7742 13.7383 51.7248C13.6404 51.6754 13.5556 51.6037 13.4906 51.5154C13.4257 51.4272 13.3824 51.3249 13.3643 51.2168C13.3462 51.1087 13.3538 50.9979 13.3864 50.8933C14.3012 47.9536 14.4055 44.8214 13.6883 41.8274C12.9711 38.8334 11.459 36.0885 9.31159 33.8823C9.19531 33.7474 9.13484 33.5733 9.14249 33.3953C9.15014 33.2174 9.22534 33.0491 9.35277 32.9247C9.48019 32.8003 9.65026 32.7291 9.82832 32.7257C10.0064 32.7223 10.179 32.7869 10.3111 32.9064C11.383 34.0034 12.316 35.2391 13.0911 36.5782C14.3628 38.7887 15.1639 41.2382 15.4442 43.773C15.7244 46.3078 15.4777 48.8732 14.7196 51.3081C14.6753 51.4502 14.5869 51.5745 14.4672 51.6629C14.3474 51.7513 14.2026 51.7993 14.0538 51.7998Z" fill="#EBF855"/>
  <path d="M15.4873 44.139C16.5385 44.5583 17.4775 44.5701 18.3486 44.1773C19.8899 43.479 21.04 41.5272 21.7 39.6847C19.7438 39.7186 17.5247 40.1808 16.3702 41.418C15.7176 42.1178 15.4268 43.0095 15.4873 44.139ZM17.0316 45.8604C16.2285 45.8604 15.3914 45.6537 14.5262 45.2433C14.4196 45.1924 14.3277 45.1154 14.2591 45.0193C14.1904 44.9233 14.1472 44.8114 14.1335 44.6941C13.9297 42.9682 14.3387 41.5449 15.3485 40.4642C17.4362 38.229 21.4667 38.2437 22.6508 38.3028H22.6818C22.7882 38.3067 22.8922 38.3349 22.986 38.3852C23.0798 38.4356 23.1608 38.5067 23.2228 38.5933C23.2848 38.6798 23.3262 38.7794 23.3437 38.8844C23.3613 38.9894 23.3545 39.097 23.324 39.199L23.3151 39.227C22.9903 40.3683 21.7103 44.1906 18.9229 45.4485C18.3176 45.7246 17.6857 45.8604 17.0316 45.8604Z" fill="#EBF855"/>
  <path d="M7.1221 41.1228C8.13048 42.8015 9.64082 44.492 11.2885 44.8729C12.2216 45.0899 13.1384 44.895 14.0862 44.2779C13.9238 43.1573 13.4661 42.3379 12.6896 41.7813C11.3165 40.7936 9.04879 40.7744 7.1221 41.1228ZM12.0193 46.3552C11.6709 46.3552 11.3224 46.3153 10.9725 46.2356C7.99317 45.5446 5.99266 42.0471 5.45083 40.99L5.43607 40.9649C5.3863 40.8708 5.35872 40.7667 5.35545 40.6603C5.35218 40.554 5.3733 40.4483 5.4172 40.3514C5.46109 40.2544 5.5266 40.1689 5.60869 40.1012C5.69079 40.0335 5.78729 39.9855 5.89079 39.9609L5.91885 39.9535C7.07043 39.6656 11.0198 38.8625 13.5045 40.646C14.7048 41.5097 15.3855 42.8251 15.5228 44.5569C15.5322 44.6746 15.5117 44.7928 15.4632 44.9004C15.4146 45.0081 15.3396 45.1017 15.2452 45.1726C14.1881 45.9595 13.1074 46.3566 12.0178 46.3566L12.0193 46.3552ZM53.6077 18.7762C53.4845 18.7764 53.3633 18.7444 53.2563 18.6832L49.4472 16.4834C49.2922 16.3934 49.1776 16.2474 49.1271 16.0755C49.0765 15.9035 49.0939 15.7187 49.1756 15.5592C49.6879 14.5596 50.0924 13.7211 50.2474 12.785C50.3729 12.0217 50.3685 11.1905 50.3464 10.4021C50.2135 5.86371 51.8508 2.61713 55.2125 0.752453C55.3179 0.69382 55.4367 0.663541 55.5573 0.664576C55.6779 0.665612 55.7962 0.697926 55.9005 0.758358L57.1761 1.49508C57.3263 1.59275 57.4332 1.74428 57.475 1.91845C57.5168 2.09263 57.4902 2.27619 57.4007 2.43135C57.3112 2.5865 57.1656 2.70143 56.9939 2.75247C56.8222 2.80351 56.6375 2.78678 56.4778 2.70572L55.5521 2.17126C52.8754 3.8071 51.6293 6.4897 51.743 10.3623C51.7681 11.2186 51.7711 12.1339 51.6249 13.0139C51.4728 13.941 51.1436 14.7368 50.7184 15.6035L53.3848 17.1433C53.9222 16.3416 54.4478 15.6581 55.1741 15.0616C55.8636 14.4947 56.6564 14.0414 57.4124 13.6354C60.8228 11.7973 62.5207 9.37604 62.6004 6.23872L61.6747 5.70574C61.5952 5.65979 61.5255 5.59863 61.4697 5.52576C61.4138 5.45289 61.3729 5.36973 61.3491 5.28103C61.3254 5.19232 61.3194 5.09982 61.3314 5.0088C61.3435 4.91777 61.3733 4.83001 61.4193 4.75051C61.4652 4.67102 61.5264 4.60136 61.5993 4.5455C61.6721 4.48965 61.7553 4.44869 61.844 4.42497C61.9327 4.40126 62.0252 4.39524 62.1162 4.40727C62.2072 4.41931 62.295 4.44915 62.3745 4.4951L63.6501 5.23329C63.7541 5.29346 63.8407 5.37941 63.9018 5.48286C63.9628 5.58631 63.9961 5.70376 63.9985 5.82385C64.065 9.66837 62.0718 12.7112 58.0752 14.8653C57.3813 15.2373 56.6579 15.6507 56.06 16.1409C55.3277 16.7447 54.8021 17.5139 54.1923 18.4588C54.1289 18.5565 54.0421 18.6367 53.9397 18.6921C53.8373 18.7476 53.7227 18.7765 53.6062 18.7762H53.6077Z" fill="#EBF855"/>
  <path d="M59.9709 4.96151C60.2515 5.12391 60.5674 5.18149 60.8553 5.12539C60.9708 5.10725 61.081 5.06434 61.1783 4.99961C61.2757 4.93489 61.3579 4.84986 61.4193 4.75038C61.4745 4.6476 61.5069 4.53413 61.5142 4.4177C61.5216 4.30127 61.5038 4.18461 61.4621 4.07567C61.3556 3.785 61.1481 3.54236 60.8774 3.3921L58.8799 2.23757C58.6144 2.0784 58.3003 2.02071 57.9955 2.07517C57.8803 2.09296 57.7703 2.13557 57.6732 2.20007C57.5761 2.26456 57.4941 2.3494 57.433 2.44869C57.1865 2.87389 57.433 3.49693 57.9749 3.80845L59.9709 4.96151ZM60.6353 6.5442C60.1673 6.5442 59.6978 6.41723 59.2726 6.17067L57.275 5.01909C56.06 4.31632 55.5875 2.85027 56.2224 1.75036C56.3828 1.47693 56.6006 1.24159 56.8609 1.0606C57.1212 0.879619 57.4176 0.757308 57.7298 0.702123C58.3513 0.584012 59.0069 0.697694 59.5782 1.02841L61.5772 2.17999C62.1486 2.51218 62.5768 3.02153 62.782 3.61947C63.0005 4.25136 62.9459 4.90245 62.6284 5.45019C62.4687 5.7239 62.2513 5.95949 61.9912 6.14053C61.7311 6.32157 61.4347 6.44371 61.1225 6.49843C60.9601 6.52796 60.7977 6.5442 60.6353 6.5442ZM57.7165 14.9478C54.4921 14.9478 52.0442 13.529 50.4379 10.7298C50.3457 10.569 50.3211 10.3782 50.3696 10.1994C50.418 10.0205 50.5355 9.86823 50.6963 9.77601C50.857 9.6838 51.0478 9.65921 51.2266 9.70767C51.4055 9.75612 51.5578 9.87364 51.65 10.0344C53.0083 12.401 54.9926 13.5511 57.718 13.5511H57.7431C57.9283 13.5507 58.1061 13.6239 58.2373 13.7546C58.3685 13.8853 58.4425 14.0628 58.4429 14.248C58.4433 14.4332 58.3701 14.611 58.2394 14.7422C58.1087 14.8735 57.9312 14.9474 57.746 14.9478H57.7165ZM47.9782 28.5247C47.8553 28.5246 47.7346 28.492 47.6283 28.4302L43.8192 26.2304C43.7399 26.1846 43.6704 26.1237 43.6146 26.0511C43.5588 25.9785 43.5179 25.8956 43.4942 25.8072C43.4705 25.7187 43.4644 25.6265 43.4764 25.5357C43.4883 25.4449 43.518 25.3574 43.5638 25.2781L49.1918 15.5295C49.2895 15.3794 49.441 15.2724 49.6152 15.2306C49.7894 15.1888 49.9729 15.2154 50.1281 15.3049C50.2832 15.3944 50.3982 15.54 50.4492 15.7117C50.5003 15.8834 50.4835 16.0681 50.4025 16.2278L45.1229 25.3711L47.7228 26.8711L53.0024 17.7278C53.095 17.5673 53.2476 17.4501 53.4266 17.4021C53.6056 17.354 53.7963 17.3791 53.9569 17.4717C54.1174 17.5643 54.2346 17.7169 54.2826 17.8959C54.3307 18.0749 54.3056 18.2656 54.213 18.4262L48.5835 28.1763C48.5225 28.2827 48.4343 28.371 48.3279 28.4322C48.2216 28.4934 48.1009 28.5253 47.9782 28.5247Z" fill="#EBF855"/>
  <path d="M35.0598 46.5024C34.9532 46.5027 34.8479 46.4785 34.7521 46.4317C34.6563 46.3849 34.5725 46.3167 34.5072 46.2325C34.4418 46.1482 34.3967 46.05 34.3753 45.9455C34.3539 45.8411 34.3567 45.7331 34.3836 45.6299L36.4269 37.6914C36.4423 37.6298 36.4661 37.5706 36.4978 37.5157L43.5638 25.2764C43.6564 25.1159 43.809 24.9987 43.988 24.9506C44.167 24.9026 44.3578 24.9276 44.5183 25.0202C44.6788 25.1128 44.796 25.2654 44.8441 25.4444C44.8921 25.6234 44.8671 25.8142 44.7745 25.9747L37.7572 38.1313L36.3605 43.5482L40.3556 39.6328L47.3729 27.4777C47.4655 27.3172 47.6181 27.2 47.7971 27.1519C47.9761 27.1039 48.1668 27.1289 48.3274 27.2215C48.4879 27.3141 48.6051 27.4667 48.6531 27.6457C48.7012 27.8247 48.6761 28.0155 48.5835 28.176L41.5175 40.4153C41.4853 40.4694 41.4461 40.5191 41.4009 40.5629L35.5485 46.3017C35.4183 46.4301 35.2427 46.5023 35.0598 46.5024Z" fill="#EBF855"/>
  <path d="M22.6951 47.4315C22.5723 47.4316 22.4517 47.3994 22.3454 47.3382C22.239 47.2769 22.1507 47.1886 22.0893 47.0823C22.028 46.976 21.9957 46.8555 21.9958 46.7327C21.9958 46.61 22.0282 46.4894 22.0897 46.3832L28.2374 35.7384C29.1439 34.1676 31.3083 33.7114 33.0578 34.7227L37.453 37.2606C37.5346 37.3053 37.6063 37.3659 37.6641 37.4388C37.7219 37.5116 37.7646 37.5953 37.7896 37.6848C37.8147 37.7744 37.8216 37.868 37.8099 37.9603C37.7983 38.0525 37.7683 38.1415 37.7218 38.2221C37.6753 38.3026 37.6132 38.373 37.5391 38.4292C37.465 38.4854 37.3804 38.5262 37.2903 38.5493C37.2003 38.5724 37.1065 38.5772 37.0145 38.5636C36.9225 38.5499 36.8342 38.518 36.7547 38.4698L32.3595 35.9333C31.2758 35.3073 29.9692 35.5318 29.4466 36.4353L23.3004 47.0815C23.2391 47.1879 23.1509 47.2763 23.0447 47.3377C22.9384 47.3991 22.8178 47.4315 22.6951 47.4315ZM41.6799 55.5221C41.557 55.5227 41.4361 55.4908 41.3295 55.4296C41.2229 55.3684 41.1344 55.2801 41.0729 55.1737C41.0115 55.0673 40.9793 54.9464 40.9795 54.8235C40.9798 54.7006 41.0126 54.58 41.0746 54.4738L45.9777 45.9802C46.2213 45.5594 46.2582 45.0471 46.0825 44.5348C45.8802 43.9706 45.4806 43.4987 44.9575 43.206L40.5638 40.6696C40.4033 40.577 40.2861 40.4244 40.238 40.2454C40.19 40.0664 40.215 39.8756 40.3076 39.7151C40.4002 39.5546 40.5528 39.4374 40.7318 39.3893C40.9108 39.3413 41.1016 39.3663 41.2621 39.4589L45.6559 41.9969C46.4871 42.4767 47.1086 43.2178 47.4039 44.083C47.714 44.9821 47.6357 45.9049 47.1884 46.6785L42.2853 55.1722C42.224 55.2785 42.1358 55.3669 42.0295 55.4283C41.9233 55.4897 41.8027 55.5221 41.6799 55.5221Z" fill="#EBF855"/>
</svg>
