<svg xmlns="http://www.w3.org/2000/svg" width="64" height="64" viewBox="0 0 64 64" fill="none">
  <path d="M27.4541 57.4572C23.2936 57.4572 19.2266 56.1997 15.7674 53.8439C12.3081 51.488 9.61194 48.1395 8.01982 44.2219C6.42769 40.3042 6.01112 35.9934 6.82278 31.8344C7.63444 27.6755 9.63787 23.8552 12.5797 20.8568C15.5216 17.8584 19.2698 15.8164 23.3502 14.9891C27.4307 14.1619 31.6603 14.5864 35.504 16.2092C39.3477 17.8319 42.633 20.5799 44.9444 24.1057C47.2558 27.6315 48.4895 31.7767 48.4895 36.0172C48.4832 41.7014 46.265 47.151 42.3214 51.1704C38.3779 55.1898 33.0311 57.4507 27.4541 57.4572ZM27.4541 15.4305C23.4592 15.4305 19.5541 16.6379 16.2325 18.9C12.9109 21.1621 10.3221 24.3773 8.79332 28.139C7.26456 31.9007 6.86457 36.04 7.64392 40.0334C8.42328 44.0268 10.347 47.695 13.1717 50.5741C15.9965 53.4532 19.5955 55.4139 23.5136 56.2083C27.4317 57.0026 31.4928 56.5949 35.1836 55.0368C38.8743 53.4786 42.0289 50.84 44.2483 47.4545C46.4677 44.069 47.6523 40.0888 47.6523 36.0172C47.6462 30.5591 45.5162 25.3265 41.7296 21.467C37.9431 17.6076 32.8091 15.4367 27.4541 15.4305Z" fill="#34623F"></path>
  <path d="M27.4541 52.8351C24.1906 52.8351 21.0003 51.8487 18.2868 50.0007C15.5733 48.1527 13.4584 45.5261 12.2095 42.453C10.9606 39.3799 10.6339 35.9983 11.2706 32.736C11.9073 29.4736 13.4789 26.4769 15.7866 24.1249C18.0943 21.7729 21.0344 20.1712 24.2353 19.5223C27.4361 18.8735 30.7538 19.2066 33.7689 20.4795C36.784 21.7525 39.361 23.9082 41.1741 26.6739C42.9871 29.4397 43.9548 32.6913 43.9547 36.0176C43.9497 40.4764 42.2097 44.7511 39.1163 47.9039C36.0229 51.0567 31.8288 52.8301 27.4541 52.8351ZM27.4541 20.0526C24.3562 20.0526 21.3279 20.9889 18.752 22.743C16.1762 24.4972 14.1686 26.9905 12.9831 29.9077C11.7975 32.8248 11.4873 36.0347 12.0917 39.1315C12.696 42.2283 14.1878 45.073 16.3783 47.3057C18.5688 49.5384 21.3597 51.0589 24.3981 51.6749C27.4364 52.291 30.5858 51.9749 33.4479 50.7666C36.31 49.5584 38.7563 47.5122 40.4775 44.8869C42.1987 42.2616 43.1174 39.1751 43.1175 36.0176C43.1126 31.7851 41.4608 27.7273 38.5244 24.7345C35.588 21.7417 31.6068 20.0583 27.4541 20.0534V20.0526Z" fill="#34623F"></path>
  <path d="M27.4541 48.2135C25.0875 48.2135 22.7741 47.4982 20.8063 46.1581C18.8386 44.818 17.3049 42.9133 16.3992 40.6848C15.4936 38.4563 15.2566 36.0041 15.7183 33.6383C16.18 31.2726 17.3197 29.0995 18.9931 27.3939C20.6665 25.6882 22.7986 24.5267 25.1197 24.0561C27.4409 23.5855 29.8468 23.8271 32.0332 24.7501C34.2197 25.6732 36.0885 27.2364 37.4033 29.242C38.7181 31.2476 39.4199 33.6055 39.4199 36.0176C39.4163 39.2511 38.1545 42.351 35.9113 44.6374C33.668 46.9238 30.6266 48.2099 27.4541 48.2135ZM27.4541 24.6755C25.2531 24.6755 23.1015 25.3408 21.2714 26.5871C19.4414 27.8335 18.015 29.605 17.1727 31.6776C16.3304 33.7502 16.1101 36.0308 16.5395 38.231C16.9689 40.4313 18.0289 42.4523 19.5853 44.0386C21.1416 45.6248 23.1246 46.7051 25.2833 47.1427C27.4421 47.5803 29.6797 47.3556 31.7131 46.497C33.7466 45.6385 35.4846 44.1846 36.7073 42.3193C37.9301 40.454 38.5827 38.261 38.5826 36.0176C38.5794 33.0104 37.4059 30.1273 35.3196 28.0009C33.2333 25.8745 30.4046 24.6788 27.4541 24.6755Z" fill="#34623F"></path>
  <path d="M27.4541 43.5906C25.9845 43.5906 24.5479 43.1464 23.3259 42.3142C22.104 41.482 21.1516 40.2992 20.5892 38.9153C20.0269 37.5315 19.8797 36.0087 20.1665 34.5396C20.4532 33.0705 21.1609 31.7211 22.2001 30.6619C23.2394 29.6028 24.5634 28.8815 26.0048 28.5894C27.4462 28.2972 28.9402 28.4472 30.2979 29.0205C31.6556 29.5938 32.8161 30.5645 33.6325 31.81C34.4489 33.0555 34.8846 34.5198 34.8846 36.0177C34.8822 38.0255 34.0986 39.9504 32.7056 41.37C31.3126 42.7897 29.424 43.5883 27.4541 43.5906ZM27.4541 29.2972C26.1501 29.2972 24.8754 29.6913 23.7912 30.4297C22.7069 31.1681 21.8619 32.2176 21.3628 33.4455C20.8638 34.6734 20.7332 36.0245 20.9876 37.3281C21.2419 38.6316 21.8698 39.829 22.7919 40.7688C23.7139 41.7087 24.8887 42.3487 26.1676 42.6081C27.4465 42.8674 28.7722 42.7344 29.9769 42.2258C31.1817 41.7173 32.2114 40.856 32.936 39.751C33.6605 38.6459 34.0472 37.3467 34.0473 36.0177C34.0453 34.236 33.3501 32.5279 32.114 31.268C30.878 30.0081 29.2022 29.2994 27.4541 29.2972ZM27.4541 17.7068C27.3431 17.7068 27.2366 17.6619 27.1581 17.5819C27.0796 17.5019 27.0355 17.3933 27.0355 17.2802V12.7285C27.0355 12.6153 27.0796 12.5068 27.1581 12.4268C27.2366 12.3468 27.3431 12.3018 27.4541 12.3018C27.5651 12.3018 27.6716 12.3468 27.7501 12.4268C27.8286 12.5068 27.8727 12.6153 27.8727 12.7285V17.2802C27.8727 17.3933 27.8286 17.5019 27.7501 17.5819C27.6716 17.6619 27.5651 17.7068 27.4541 17.7068ZM27.4541 59.7335C27.3431 59.7335 27.2366 59.6885 27.1581 59.6085C27.0796 59.5285 27.0355 59.42 27.0355 59.3068V54.7552C27.0355 54.642 27.0796 54.5335 27.1581 54.4535C27.2366 54.3734 27.3431 54.3285 27.4541 54.3285C27.5651 54.3285 27.6716 54.3734 27.7501 54.4535C27.8286 54.5335 27.8727 54.642 27.8727 54.7552V59.3068C27.8727 59.42 27.8286 59.5285 27.7501 59.6085C27.6716 59.6885 27.5651 59.7335 27.4541 59.7335ZM50.3039 36.4439H45.8385C45.7275 36.4439 45.621 36.3989 45.5425 36.3189C45.464 36.2389 45.4199 36.1304 45.4199 36.0172C45.4199 35.9041 45.464 35.7956 45.5425 35.7155C45.621 35.6355 45.7275 35.5906 45.8385 35.5906H50.3039C50.4149 35.5906 50.5214 35.6355 50.5999 35.7155C50.6784 35.7956 50.7225 35.9041 50.7225 36.0172C50.7225 36.1304 50.6784 36.2389 50.5999 36.3189C50.5214 36.3989 50.4149 36.4439 50.3039 36.4439ZM9.07015 36.4439H4.60477C4.49375 36.4439 4.38727 36.3989 4.30877 36.3189C4.23026 36.2389 4.18616 36.1304 4.18616 36.0172C4.18616 35.9041 4.23026 35.7956 4.30877 35.7155C4.38727 35.6355 4.49375 35.5906 4.60477 35.5906H9.07015C9.18118 35.5906 9.28766 35.6355 9.36616 35.7155C9.44467 35.7956 9.48877 35.9041 9.48877 36.0172C9.48877 36.1304 9.44467 36.2389 9.36616 36.3189C9.28766 36.3989 9.18118 36.4439 9.07015 36.4439ZM55.5688 7.90972C55.4859 7.90978 55.4048 7.88475 55.3359 7.83779C55.2669 7.79083 55.2132 7.72407 55.1816 7.64596C55.1499 7.56784 55.1417 7.48191 55.158 7.39905C55.1744 7.31619 55.2145 7.24014 55.2733 7.18054L57.8921 4.52284C57.9708 4.44295 58.0775 4.3982 58.1886 4.39844C58.2996 4.39868 58.4061 4.44389 58.4845 4.52412C58.5628 4.60435 58.6068 4.71303 58.6065 4.82625C58.6063 4.93947 58.5619 5.04796 58.4832 5.12785L55.8639 7.78556C55.7855 7.86505 55.6794 7.90969 55.5688 7.90972Z" fill="#34623F"></path>
  <path d="M27.4567 36.4463C27.3741 36.4458 27.2934 36.4204 27.225 36.3732C27.1565 36.3261 27.1033 36.2594 27.0719 36.1815C27.0406 36.1035 27.0326 36.0179 27.0489 35.9354C27.0652 35.8528 27.1051 35.777 27.1636 35.7176L50.2981 12.2304C50.3767 12.1505 50.4833 12.1058 50.5943 12.106C50.7054 12.1062 50.8118 12.1513 50.8902 12.2315C50.9686 12.3117 51.0125 12.4203 51.0123 12.5335C51.0121 12.6466 50.9678 12.7551 50.8891 12.835L27.7543 36.3221C27.7152 36.3618 27.6687 36.3932 27.6177 36.4145C27.5666 36.4358 27.5119 36.4466 27.4567 36.4463Z" fill="#34623F"></path>
  <path d="M53.2786 13.5732C53.2479 13.5732 53.2173 13.5697 53.1873 13.5629L50.4693 12.943C50.3936 12.9258 50.3241 12.8875 50.2685 12.8325C50.2129 12.7774 50.1735 12.7077 50.1545 12.6311L49.4717 9.87864C49.4542 9.80801 49.4548 9.73399 49.4733 9.66363C49.4919 9.59328 49.5278 9.52893 49.5776 9.47672L54.4264 4.3947C54.4784 4.34032 54.5436 4.30104 54.6154 4.28091C54.6872 4.26078 54.7629 4.26053 54.8348 4.28018C54.9067 4.29983 54.9722 4.33867 55.0245 4.3927C55.0768 4.44673 55.114 4.51399 55.1322 4.58755L55.7522 7.08568L58.2191 7.64846C58.2918 7.66495 58.3589 7.70092 58.4134 7.75265C58.4679 7.80439 58.5079 7.87002 58.5293 7.94276C58.5506 8.01551 58.5525 8.09274 58.5348 8.16649C58.517 8.24023 58.4803 8.30782 58.4284 8.36227L53.5787 13.4439C53.5397 13.4848 53.4931 13.5173 53.4415 13.5395C53.39 13.5617 53.3346 13.5731 53.2786 13.5732ZM50.9034 12.1652L53.1417 12.6772L57.3053 8.31534L55.3181 7.86179C55.2425 7.84454 55.1731 7.80625 55.1176 7.75118C55.0621 7.69612 55.0227 7.62644 55.0037 7.5499L54.5039 5.53859L50.3407 9.8987L50.9034 12.1652Z" fill="#34623F"></path>
</svg>
