<svg xmlns="http://www.w3.org/2000/svg" width="64" height="64" fill="none"><path d="M27.454 57.457c-4.16 0-8.227-1.257-11.687-3.613a21.358 21.358 0 0 1-7.747-9.622 21.823 21.823 0 0 1-1.197-12.388 21.57 21.57 0 0 1 5.757-10.977 20.917 20.917 0 0 1 10.77-5.868c4.08-.827 8.31-.403 12.154 1.22a21.127 21.127 0 0 1 9.44 7.897 21.735 21.735 0 0 1 3.545 11.911c-.006 5.684-2.224 11.134-6.168 15.153-3.943 4.02-9.29 6.28-14.867 6.287Zm0-42.026c-3.995 0-7.9 1.207-11.221 3.469a20.507 20.507 0 0 0-7.44 9.239 20.955 20.955 0 0 0-1.15 11.894 20.713 20.713 0 0 0 5.529 10.541 20.084 20.084 0 0 0 10.342 5.634c3.918.795 7.979.387 11.67-1.171a20.287 20.287 0 0 0 9.064-7.582 20.87 20.87 0 0 0 3.404-11.438c-.006-5.458-2.136-10.69-5.922-14.55-3.787-3.86-8.92-6.03-14.276-6.036Z" fill="#34623F"/><path d="M27.454 52.835a16.28 16.28 0 0 1-9.167-2.834 16.753 16.753 0 0 1-6.077-7.548 17.119 17.119 0 0 1-.94-9.717 16.92 16.92 0 0 1 4.517-8.611 16.407 16.407 0 0 1 8.448-4.603c3.201-.648 6.519-.315 9.534.958a16.573 16.573 0 0 1 7.405 6.194 17.05 17.05 0 0 1 2.78 9.344c-.004 4.458-1.744 8.733-4.838 11.886-3.093 3.153-7.287 4.926-11.662 4.931Zm0-32.782c-3.098 0-6.126.936-8.702 2.69a15.903 15.903 0 0 0-5.769 7.165 16.249 16.249 0 0 0-.891 9.224 16.062 16.062 0 0 0 4.286 8.174 15.574 15.574 0 0 0 8.02 4.369c3.038.616 6.188.3 9.05-.908a15.732 15.732 0 0 0 7.03-5.88 16.184 16.184 0 0 0 2.64-8.87c-.005-4.232-1.657-8.29-4.594-11.283-2.936-2.992-6.917-4.676-11.07-4.68v-.001Z" fill="#34623F"/><path d="M27.454 48.214c-2.367 0-4.68-.716-6.648-2.056a12.15 12.15 0 0 1-4.407-5.473 12.415 12.415 0 0 1-.68-7.047 12.27 12.27 0 0 1 3.274-6.244 11.897 11.897 0 0 1 6.127-3.338 11.757 11.757 0 0 1 6.913.694 12.018 12.018 0 0 1 5.37 4.492 12.363 12.363 0 0 1 2.017 6.776 12.33 12.33 0 0 1-3.509 8.62 11.866 11.866 0 0 1-8.457 3.576Zm0-23.538a10.98 10.98 0 0 0-6.183 1.911 11.3 11.3 0 0 0-4.098 5.09 11.545 11.545 0 0 0-.633 6.554c.429 2.2 1.489 4.221 3.045 5.808a11.065 11.065 0 0 0 5.698 3.104c2.16.437 4.397.213 6.43-.646a11.176 11.176 0 0 0 4.994-4.178 11.498 11.498 0 0 0 1.876-6.301A11.466 11.466 0 0 0 35.32 28a11.035 11.035 0 0 0-7.866-3.326Z" fill="#34623F"/><path d="M27.454 43.59a7.331 7.331 0 0 1-4.128-1.276 7.545 7.545 0 0 1-2.737-3.399 7.709 7.709 0 0 1-.422-4.375 7.62 7.62 0 0 1 2.033-3.878 7.388 7.388 0 0 1 3.805-2.073 7.3 7.3 0 0 1 4.293.431 7.463 7.463 0 0 1 3.335 2.79 7.678 7.678 0 0 1-.927 9.56 7.369 7.369 0 0 1-5.252 2.22Zm0-14.293a6.505 6.505 0 0 0-3.663 1.133 6.694 6.694 0 0 0-2.428 3.016 6.84 6.84 0 0 0-.375 3.882 6.76 6.76 0 0 0 1.804 3.44 6.556 6.556 0 0 0 3.376 1.84 6.478 6.478 0 0 0 3.809-.382 6.622 6.622 0 0 0 2.959-2.475 6.813 6.813 0 0 0-.822-8.483 6.539 6.539 0 0 0-4.66-1.97Zm0-11.59a.415.415 0 0 1-.296-.125.431.431 0 0 1-.123-.302v-4.552a.43.43 0 0 1 .123-.301.415.415 0 0 1 .592 0 .43.43 0 0 1 .123.302v4.551a.431.431 0 0 1-.123.302.415.415 0 0 1-.296.125Zm0 42.026a.415.415 0 0 1-.296-.124.43.43 0 0 1-.123-.302v-4.552a.43.43 0 0 1 .123-.302.414.414 0 0 1 .592 0 .43.43 0 0 1 .123.302v4.552a.43.43 0 0 1-.123.301.415.415 0 0 1-.296.126Zm22.85-23.29h-4.465a.415.415 0 0 1-.297-.124.43.43 0 0 1 0-.604.415.415 0 0 1 .297-.124h4.465c.11 0 .217.044.296.124a.431.431 0 0 1 0 .604.415.415 0 0 1-.296.125Zm-41.234 0H4.605a.415.415 0 0 1-.296-.124.43.43 0 0 1 0-.604.415.415 0 0 1 .296-.124H9.07c.111 0 .218.044.296.124a.431.431 0 0 1 0 .604.415.415 0 0 1-.296.125ZM55.57 7.91a.413.413 0 0 1-.387-.264.434.434 0 0 1 .091-.465l2.62-2.658a.415.415 0 0 1 .591.001.431.431 0 0 1 0 .604l-2.62 2.658a.415.415 0 0 1-.295.124Z" fill="#34623F"/><path d="M27.457 36.446a.425.425 0 0 1-.408-.51.429.429 0 0 1 .115-.218L50.298 12.23a.414.414 0 0 1 .592.002.43.43 0 0 1 0 .603L27.753 36.322a.418.418 0 0 1-.297.124Z" fill="#34623F"/><path d="M53.279 13.573a.413.413 0 0 1-.092-.01l-2.718-.62a.417.417 0 0 1-.315-.312l-.682-2.752a.435.435 0 0 1 .106-.402l4.848-5.082a.418.418 0 0 1 .409-.115.417.417 0 0 1 .297.308l.62 2.498 2.467.562a.416.416 0 0 1 .31.295.435.435 0 0 1-.1.42l-4.85 5.08a.418.418 0 0 1-.3.13Zm-2.376-1.408 2.239.512 4.163-4.362-1.987-.453a.416.416 0 0 1-.314-.312l-.5-2.011-4.163 4.36.562 2.266Z" fill="#34623F"/></svg>