<svg width="48" height="48" viewBox="0 0 48 48" fill="none" xmlns="http://www.w3.org/2000/svg">
<g id="Group">
<path id="Vector" d="M37.3645 0C33.968 0 30.8129 3.0081 28.8576 8.06418C26.8327 6.45861 24.2798 5.49241 21.5011 5.49241C15.0718 5.49241 9.83258 10.6308 9.64537 17.0152C9.3816 16.9913 9.11596 16.9749 8.84622 16.9749C3.99728 16.9749 0.0532227 20.9189 0.0532227 25.7671C0.0532227 30.4132 3.67724 34.2186 8.24589 34.5294V46.7996H6.70726C6.62842 46.7995 6.55034 46.815 6.47749 46.8451C6.40464 46.8753 6.33845 46.9195 6.28271 46.9752C6.22696 47.031 6.18275 47.0972 6.15261 47.17C6.12247 47.2429 6.10698 47.3209 6.10705 47.3998C6.107 47.4786 6.12249 47.5567 6.15264 47.6295C6.18279 47.7023 6.22701 47.7685 6.28275 47.8242C6.3385 47.8799 6.40469 47.9241 6.47753 47.9543C6.55037 47.9844 6.62843 47.9998 6.70726 47.9998H10.9848C11.0636 47.9998 11.1417 47.9844 11.2145 47.9543C11.2874 47.9242 11.3535 47.88 11.4093 47.8243C11.465 47.7686 11.5093 47.7024 11.5394 47.6296C11.5696 47.5568 11.5851 47.4787 11.585 47.3999C11.5851 47.3211 11.5696 47.243 11.5395 47.1701C11.5094 47.0972 11.4652 47.031 11.4094 46.9753C11.3537 46.9195 11.2875 46.8753 11.2146 46.8451C11.1418 46.815 11.0637 46.7995 10.9848 46.7996H9.4462V34.5294C13.1049 34.2803 16.1571 31.7924 17.2273 28.4211C18.4755 28.9061 19.7765 29.1744 21.1105 29.2184V46.7996H19.5719C19.493 46.7995 19.415 46.815 19.3421 46.8452C19.2693 46.8753 19.2031 46.9195 19.1474 46.9753C19.0917 47.031 19.0475 47.0972 19.0174 47.1701C18.9873 47.2429 18.9718 47.321 18.9719 47.3998C18.9718 47.4786 18.9873 47.5566 19.0175 47.6294C19.0476 47.7023 19.0918 47.7684 19.1475 47.8241C19.2032 47.8799 19.2694 47.9241 19.3422 47.9542C19.415 47.9843 19.493 47.9998 19.5719 47.9998H23.8498C23.9286 47.9998 24.0066 47.9843 24.0794 47.9542C24.1522 47.924 24.2183 47.8798 24.274 47.8241C24.3297 47.7684 24.3739 47.7023 24.404 47.6295C24.4342 47.5567 24.4497 47.4787 24.4496 47.3999C24.4497 47.3211 24.4343 47.243 24.4042 47.1702C24.3741 47.0973 24.3299 47.0311 24.2742 46.9754C24.2185 46.9196 24.1523 46.8754 24.0795 46.8452C24.0066 46.8151 23.9286 46.7995 23.8498 46.7996H22.3111V29.1978C24.2572 29.0669 26.1403 28.455 27.7916 27.4169C29.3829 34.0931 32.8315 38.491 36.7642 38.8999V46.7996H35.226C35.0669 46.7996 34.9142 46.8628 34.8017 46.9753C34.6892 47.0879 34.6259 47.2405 34.6259 47.3997C34.6259 47.5588 34.6892 47.7115 34.8017 47.824C34.9142 47.9365 35.0669 47.9998 35.226 47.9998H39.5039C39.5827 47.9998 39.6607 47.9843 39.7335 47.9542C39.8063 47.924 39.8725 47.8798 39.9282 47.8241C39.9839 47.7684 40.0281 47.7023 40.0582 47.6295C40.0883 47.5567 40.1038 47.4787 40.1038 47.3999C40.1039 47.3211 40.0885 47.243 40.0583 47.1702C40.0282 47.0973 39.9841 47.0311 39.9283 46.9754C39.8726 46.9196 39.8065 46.8754 39.7337 46.8452C39.6608 46.8151 39.5828 46.7995 39.5039 46.7996H37.9643V38.909C43.5505 38.349 47.8432 30.0138 47.8432 19.4706C47.8432 8.55221 43.2406 0 37.3645 0ZM9.4462 33.3288V30.8939L13.1214 27.2187C13.2313 27.1056 13.2921 26.9538 13.291 26.7961C13.2898 26.6384 13.2266 26.4876 13.1151 26.3761C13.0035 26.2647 12.8526 26.2016 12.695 26.2005C12.5373 26.1993 12.3855 26.2603 12.2725 26.3702L9.44608 29.1965V24.02C9.44611 23.9412 9.43062 23.8632 9.40048 23.7904C9.37035 23.7176 9.32616 23.6515 9.27045 23.5958C9.21474 23.54 9.1486 23.4959 9.07581 23.4657C9.00302 23.4356 8.925 23.4201 8.84622 23.4201C8.76741 23.42 8.68935 23.4355 8.61652 23.4656C8.54368 23.4957 8.4775 23.5399 8.42176 23.5956C8.36601 23.6513 8.3218 23.7175 8.29164 23.7903C8.26148 23.8631 8.24598 23.9412 8.24601 24.02V29.1965L5.41961 26.3701C5.30675 26.2591 5.15461 26.1972 4.99633 26.1979C4.83805 26.1985 4.68643 26.2617 4.57449 26.3736C4.46254 26.4855 4.39933 26.6371 4.39861 26.7953C4.39789 26.9536 4.45972 27.1058 4.57064 27.2187L8.24589 30.8939V33.3288C4.33982 33.0211 1.254 29.7504 1.254 25.7669C1.254 21.5806 4.65997 18.1749 8.84634 18.1749C13.0322 18.1749 16.4383 21.5805 16.4383 25.7669C16.4383 29.7504 13.3524 33.0209 9.44631 33.3287L9.4462 33.3288ZM22.3111 24.6145L27.4344 19.4915C27.6689 19.2571 27.6689 18.8775 27.4344 18.643C27.1999 18.4086 26.8204 18.4086 26.5859 18.643L22.3111 22.9173V15.3212C22.3112 15.2424 22.2956 15.1643 22.2655 15.0915C22.2353 15.0187 22.1911 14.9525 22.1353 14.8968C22.0796 14.841 22.0134 14.7968 21.9406 14.7667C21.8677 14.7365 21.7896 14.721 21.7108 14.721C21.632 14.721 21.5539 14.7364 21.481 14.7666C21.4081 14.7967 21.3419 14.8409 21.2862 14.8967C21.2304 14.9524 21.1862 15.0186 21.1561 15.0915C21.1259 15.1643 21.1104 15.2424 21.1105 15.3212V22.9169L16.8362 18.643C16.6017 18.4086 16.222 18.4086 15.9876 18.643C15.7531 18.8775 15.7531 19.2572 15.9876 19.4917L21.1105 24.6145V28.0182C19.8725 27.9736 18.652 27.7116 17.5048 27.2443C17.5867 26.763 17.6389 26.2713 17.6389 25.7671C17.6389 21.604 14.7274 18.1155 10.8355 17.2103C10.9198 11.3978 15.6685 6.69249 21.501 6.69249C27.3859 6.69249 32.1735 11.4807 32.1735 17.366C32.1735 22.9774 27.8176 27.5805 22.311 27.9971L22.3111 24.6145ZM37.9644 37.6984V33.9107L40.6767 31.198C40.9112 30.9636 40.9112 30.584 40.6767 30.3495C40.4422 30.1151 40.0622 30.1151 39.8277 30.3495L37.9644 32.2132V28.9039L40.6767 26.1915C40.7324 26.1358 40.7767 26.0696 40.8068 25.9968C40.837 25.9239 40.8525 25.8459 40.8525 25.7671C40.8525 25.6882 40.837 25.6102 40.8068 25.5373C40.7767 25.4645 40.7324 25.3983 40.6767 25.3426C40.621 25.2868 40.5548 25.2426 40.482 25.2124C40.4091 25.1823 40.3311 25.1667 40.2522 25.1667C40.1734 25.1667 40.0953 25.1823 40.0225 25.2124C39.9497 25.2426 39.8835 25.2868 39.8277 25.3426L37.9644 27.2063V23.285C37.9644 23.2062 37.9489 23.1282 37.9187 23.0554C37.8886 22.9826 37.8444 22.9165 37.7887 22.8608C37.733 22.8051 37.6669 22.7609 37.5941 22.7308C37.5213 22.7007 37.4433 22.6852 37.3645 22.6852C37.2857 22.6851 37.2076 22.7006 37.1348 22.7307C37.0619 22.7608 36.9957 22.805 36.94 22.8607C36.8842 22.9164 36.84 22.9826 36.8098 23.0554C36.7797 23.1282 36.7642 23.2063 36.7642 23.2851V27.2064L34.9004 25.3424C34.7878 25.2299 34.6351 25.1666 34.4758 25.1666C34.3166 25.1666 34.1639 25.2299 34.0513 25.3425C33.9388 25.4551 33.8755 25.6078 33.8755 25.767C33.8755 25.9263 33.9388 26.079 34.0514 26.1915L36.7641 28.9039V32.2132L34.9004 30.3495C34.7873 30.2397 34.6355 30.1787 34.4779 30.1798C34.3202 30.1809 34.1693 30.244 34.0578 30.3555C33.9463 30.4669 33.8831 30.6178 33.8819 30.7754C33.8807 30.9331 33.9416 31.0849 34.0514 31.198L36.7641 33.9107V37.6965C33.316 37.2541 30.2506 33.0311 28.8457 26.676C31.5983 24.4995 33.3737 21.1393 33.3737 17.366C33.3737 14.056 32.0095 11.0611 29.8179 8.90577C31.5777 4.08062 34.3976 1.20031 37.3645 1.20031C42.4809 1.20031 46.643 9.39661 46.643 19.4704C46.643 29.1475 42.802 37.0864 37.9645 37.6984H37.9644Z" fill="#EBF855"></path>
</g>
</svg>
