<svg width="48" height="48" fill="none" xmlns="http://www.w3.org/2000/svg"><g id="Group" fill="#EBF855"><path id="Vector" d="M1.939 30.507c1.787 6.854 6.857 12.899 13.715 16.324 5.583-6.384 9.125-16.244 9.788-18.184.048-.14.096-.284.147-.428.694-1.997 1.479-4.262-.022-5.762-1.806-1.806-4.158-1.805-5.991.002-3.665 3.616-12.12 7.842-17.635 8.048h-.002ZM15.778 48a.52.52 0 0 1-.227-.052c-3.898-1.88-7.201-4.482-9.816-7.736-2.431-3.025-4.15-6.518-4.972-10.108a.525.525 0 0 1 .524-.64c2.32.064 5.677-.817 9.209-2.41 3.377-1.523 6.495-3.52 8.341-5.34 2.25-2.217 5.25-2.216 7.469.002 1.964 1.966 1.025 4.672.271 6.845l-.146.426c-.961 2.812-4.54 12.482-10.265 18.84a.526.526 0 0 1-.388.173Z"/><path id="Vector_2" d="M6.017 32.27a.525.525 0 0 1-.09-1.039c2.85-.507 6.374-1.918 9.429-3.776a.524.524 0 1 1 .545.895c-3.16 1.921-6.821 3.384-9.791 3.912a.544.544 0 0 1-.092.008h-.001Zm9.495 9.494a.525.525 0 0 1-.42-.836c1.415-1.914 2.768-4.233 4.02-6.893.256-.54.504-1.09.74-1.637a.525.525 0 0 1 .962.415c-.24.557-.494 1.119-.753 1.67-1.281 2.72-2.671 5.098-4.128 7.068a.522.522 0 0 1-.421.213ZM26.86 24.289a.523.523 0 0 1-.371-.895L45.797 4.086c.377-.377.497-.833.356-1.354-.2-.743-.883-1.429-1.627-1.628-.52-.14-.977-.02-1.353.356L23.627 21.005a.525.525 0 0 1-.742-.742L42.434.72c.64-.643 1.48-.864 2.366-.628 1.1.296 2.073 1.269 2.367 2.368.237.886.015 1.726-.628 2.367L27.23 24.136a.52.52 0 0 1-.37.154Z"/></g></svg>