<svg width="46" height="64" fill="none" xmlns="http://www.w3.org/2000/svg"><g id="Group" fill="#EBF855"><path id="Vector" d="M44.956 64.001H1.046a.698.698 0 0 1-.7-.7V54.48c0-3.012 1.006-5.764 2.915-7.956 1.816-2.09 4.385-3.535 7.23-4.07 3.713-.7 6.32-3.707 6.972-8.047a.7.7 0 1 1 1.382.208c-.744 4.953-3.771 8.396-8.095 9.211C5.36 44.84 1.744 49.12 1.744 54.48v8.126h42.512v-8.126c0-5.36-3.62-9.641-9.007-10.654-4.323-.815-7.351-4.258-8.094-9.213a.7.7 0 0 1 1.38-.206c.653 4.339 3.26 7.348 6.972 8.046 2.847.536 5.414 1.982 7.232 4.07 1.907 2.193 2.916 4.944 2.916 7.957v8.824a.698.698 0 0 1-.699.698Z"/><path id="Vector_2" d="M12.774 16.74a6.76 6.76 0 0 0 0 1.01l.686 9.32c.389 5.298 5.218 7.712 9.54 7.712 4.32 0 9.15-2.414 9.54-7.711l.686-9.322a7.19 7.19 0 0 0 0-1.008c-2.54.598-6.274.948-10.227.948-3.95 0-7.687-.35-10.225-.948ZM22.999 36.18c-4.946 0-10.478-2.819-10.934-9.006l-.685-9.32a7.818 7.818 0 0 1 .126-2.124.703.703 0 0 1 .878-.531c2.393.683 6.363 1.092 10.615 1.092s8.222-.409 10.619-1.092a.698.698 0 0 1 .875.531c.137.677.179 1.391.125 2.123l-.685 9.32C33.477 33.36 27.947 36.18 23 36.18Z"/><path id="Vector_3" d="M23 17.687c-3.549 0-6.892-.271-9.414-.77-3.008-.594-4.409-1.394-4.409-2.518 0-.74.505-1.817 4.852-2.601a.7.7 0 0 1 .25 1.376c-2.546.458-3.467.995-3.672 1.225.205.23 1.126.768 3.67 1.226 2.383.43 5.479.667 8.722.667 3.244 0 6.34-.236 8.723-.667 2.545-.458 3.465-.995 3.672-1.226-.207-.23-1.128-.767-3.672-1.225a.7.7 0 0 1 .248-1.376c4.348.782 4.851 1.86 4.851 2.601 0 1.124-1.4 1.924-4.408 2.518-2.52.498-5.863.772-9.414.772v-.002ZM39.6 64.001a.698.698 0 0 1-.7-.7v-9.025c0-.995-.81-1.805-1.807-1.805H8.904c-.995 0-1.805.81-1.805 1.806v9.025a.699.699 0 0 1-1.399 0v-9.026a3.207 3.207 0 0 1 3.204-3.203h28.19a3.207 3.207 0 0 1 3.204 3.203v9.026a.699.699 0 0 1-.697.7Z"/><path id="Vector_4" d="M32.918 52.47a.698.698 0 0 1-.7-.699V42.3a.7.7 0 1 1 1.398 0v9.472a.698.698 0 0 1-.698.7Zm4.178 0a.698.698 0 0 1-.7-.699v-8.187a.698.698 0 0 1 1.397 0v8.187a.7.7 0 0 1-.699.698l.002.002Zm-28.192 0a.698.698 0 0 1-.698-.699v-8.187a.698.698 0 0 1 1.397 0v8.187a.698.698 0 0 1-.699.7Zm4.178 0a.698.698 0 0 1-.7-.699V42.3a.7.7 0 1 1 1.399 0v9.472a.698.698 0 0 1-.699.7Zm20.367 5.765H12.551a.7.7 0 0 1 0-1.397h20.898a.698.698 0 1 1 0 1.397ZM23 43.617c-2.55 0-5.102-.994-7.636-2.976a.7.7 0 0 1 .863-1.102c4.559 3.573 8.99 3.573 13.547 0a.7.7 0 1 1 .862 1.102c-2.532 1.982-5.085 2.976-7.636 2.976ZM33.653 24.57c-.083 0-.166-.003-.248-.01a.7.7 0 0 1 .11-1.392c1.273.1 1.874-1.226 2.007-2.388.167-1.485-.378-3.167-1.714-3.363a.7.7 0 0 1 .202-1.383c2.23.327 3.145 2.713 2.9 4.901-.25 2.207-1.541 3.635-3.257 3.635Zm-21.306 0c-1.714 0-3.009-1.428-3.258-3.635-.245-2.188.671-4.574 2.9-4.901a.699.699 0 1 1 .202 1.383c-1.335.196-1.881 1.878-1.713 3.363.131 1.164.735 2.486 2.008 2.387a.698.698 0 1 1 .11 1.394 2.85 2.85 0 0 1-.249.01Zm2.677-12.64c1.715.289 4.559.652 7.975.652 3.417 0 6.26-.363 7.976-.651l-2.419-9.1c-.228-.872-.863-1.434-1.615-1.434h-7.884c-.748 0-1.383.564-1.615 1.433l-2.418 9.1Zm7.975 2.049c-3.025 0-6.212-.287-8.975-.807a.698.698 0 0 1-.546-.866l2.613-9.835C16.484.995 17.678 0 19.06 0h7.882c1.385 0 2.578.994 2.966 2.474l2.613 9.833a.702.702 0 0 1-.546.865c-2.76.52-5.95.806-8.975.806Z"/></g></svg>