<svg width="48" height="48" fill="none" xmlns="http://www.w3.org/2000/svg"><g id="Group"><path id="Vector" d="M37.364 0c-3.396 0-6.551 3.008-8.506 8.064A11.801 11.801 0 0 0 21.5 5.492c-6.43 0-11.668 5.139-11.856 11.523a8.834 8.834 0 0 0-.799-.04c-4.849 0-8.793 3.944-8.793 8.792 0 4.646 3.624 8.452 8.193 8.762V46.8H6.707a.6.6 0 1 0 0 1.2h4.278a.601.601 0 1 0 0-1.2H9.446V34.53a8.805 8.805 0 0 0 7.781-6.108c1.248.485 2.55.753 3.883.797V46.8h-1.538a.598.598 0 0 0-.555.83.598.598 0 0 0 .555.37h4.278a.6.6 0 0 0 0-1.2H22.31V29.198c1.946-.131 3.83-.743 5.48-1.781 1.592 6.676 5.04 11.074 8.973 11.483v7.9h-1.538a.6.6 0 1 0 0 1.2h4.278a.6.6 0 0 0 0-1.2h-1.54v-7.891c5.587-.56 9.88-8.895 9.88-19.438C47.843 8.552 43.24 0 37.363 0ZM9.447 33.329v-2.435l3.675-3.675a.6.6 0 0 0-.848-.849l-2.827 2.826V24.02a.6.6 0 1 0-1.2 0v5.177L5.42 26.37a.6.6 0 0 0-.85.849l3.676 3.675v2.435c-3.906-.308-6.992-3.579-6.992-7.562 0-4.186 3.406-7.592 7.592-7.592s7.592 3.405 7.592 7.592c0 3.983-3.086 7.254-6.992 7.562Zm12.865-8.715 5.123-5.123a.6.6 0 1 0-.848-.848l-4.275 4.274v-7.596a.6.6 0 1 0-1.2 0v7.596l-4.275-4.274a.6.6 0 1 0-.848.849l5.122 5.122v3.404a10.567 10.567 0 0 1-3.605-.774c.082-.481.134-.973.134-1.477 0-4.163-2.912-7.651-6.803-8.557.084-5.812 4.832-10.518 10.665-10.518 5.885 0 10.672 4.789 10.672 10.674 0 5.611-4.355 10.215-9.862 10.631v-3.383Zm15.653 13.084v-3.787l2.713-2.713a.6.6 0 1 0-.85-.849l-1.863 1.864v-3.31l2.713-2.711a.6.6 0 1 0-.85-.85l-1.863 1.864v-3.921a.6.6 0 1 0-1.2 0v3.921L34.9 25.342a.6.6 0 0 0-.849.85l2.713 2.712v3.31L34.9 30.35a.6.6 0 0 0-.849.848l2.713 2.713v3.785c-3.448-.442-6.513-4.665-7.918-11.02 2.752-2.176 4.528-5.537 4.528-9.31 0-3.31-1.364-6.305-3.556-8.46 1.76-4.825 4.58-7.706 7.546-7.706 5.117 0 9.279 8.197 9.279 18.27 0 9.678-3.841 17.616-8.678 18.228Z" fill="#EBF855"/></g></svg>