<svg width="64" height="62" fill="none" xmlns="http://www.w3.org/2000/svg"><path d="M1.423 59.945h43.732a5.438 5.438 0 0 0-7.696-4.213.695.695 0 0 1-.939-.355 13.303 13.303 0 0 0-12.222-8.036 13.352 13.352 0 0 0-9.733 4.236.694.694 0 0 1-.739.185 9.398 9.398 0 0 0-12.401 8.185l-.002-.002Zm44.475 1.398H.698A.698.698 0 0 1 0 60.645C0 54.698 4.838 49.86 10.784 49.86c1.045 0 2.074.15 3.067.443a14.753 14.753 0 0 1 10.447-4.36 14.695 14.695 0 0 1 13.217 8.258 6.833 6.833 0 0 1 9.08 6.443.698.698 0 0 1-.697.7ZM6.574 22.183c-.915 2.577-1.407 5.81-.292 7.958.628 1.21 1.738 2.04 3.306 2.478 1.092-1.205 1.59-2.5 1.476-3.858-.2-2.412-2.343-4.886-4.49-6.577Zm3.238 11.91a.703.703 0 0 1-.156-.016c-2.185-.499-3.739-1.606-4.614-3.292-1.83-3.529-.044-8.498.55-9.938l.014-.038a.7.7 0 0 1 1.057-.306l.034.026c1.268.902 5.427 4.156 5.76 8.115.159 1.895-.566 3.659-2.152 5.244a.699.699 0 0 1-.493.204Z" fill="#EBF855"/><path d="M14.054 51.8a.698.698 0 0 1-.668-.907 17.103 17.103 0 0 0-4.074-17.01.7.7 0 0 1 1-.977 18.543 18.543 0 0 1 2.78 3.672 18.507 18.507 0 0 1 1.628 14.73.7.7 0 0 1-.666.492Z" fill="#EBF855"/><path d="M15.487 44.139c1.051.42 1.99.431 2.862.038 1.54-.698 2.691-2.65 3.351-4.492-1.956.034-4.175.496-5.33 1.733-.652.7-.943 1.592-.883 2.721Zm1.545 1.721c-.803 0-1.64-.206-2.506-.617a.697.697 0 0 1-.393-.549c-.203-1.726.206-3.15 1.216-4.23 2.087-2.235 6.118-2.22 7.302-2.161h.03a.698.698 0 0 1 .643.896l-.009.028c-.325 1.141-1.605 4.964-4.392 6.222a4.51 4.51 0 0 1-1.891.411Z" fill="#EBF855"/><path d="M7.122 41.123c1.008 1.678 2.519 3.369 4.167 3.75.933.217 1.85.022 2.797-.595-.162-1.12-.62-1.94-1.396-2.497-1.373-.987-3.641-1.007-5.568-.658Zm4.897 5.232c-.348 0-.697-.04-1.046-.12-2.98-.69-4.98-4.188-5.522-5.245l-.015-.025a.697.697 0 0 1 .455-1.004l.028-.008c1.151-.287 5.1-1.09 7.586.693 1.2.864 1.88 2.18 2.018 3.91a.7.7 0 0 1-.278.617c-1.057.786-2.138 1.184-3.227 1.184l.001-.002Zm41.589-27.579a.705.705 0 0 1-.352-.093l-3.809-2.2a.7.7 0 0 1-.271-.924c.512-1 .916-1.838 1.071-2.774.126-.763.121-1.595.1-2.383-.133-4.538 1.504-7.785 4.865-9.65a.697.697 0 0 1 .688.006l1.276.737a.7.7 0 0 1-.698 1.21l-.926-.534c-2.677 1.636-3.923 4.319-3.809 8.191.025.857.028 1.772-.118 2.652-.152.927-.481 1.723-.907 2.59l2.667 1.54c.537-.802 1.063-1.486 1.79-2.082.689-.567 1.481-1.02 2.237-1.427 3.41-1.838 5.109-4.259 5.188-7.396l-.925-.533a.698.698 0 1 1 .7-1.21l1.275.737a.699.699 0 0 1 .349.59c.066 3.845-1.927 6.888-5.924 9.042-.694.372-1.417.786-2.015 1.276-.732.604-1.258 1.373-1.868 2.318a.696.696 0 0 1-.586.317h.002Z" fill="#EBF855"/><path d="M59.97 4.962c.282.162.597.22.885.163a.81.81 0 0 0 .564-.375.81.81 0 0 0 .043-.674 1.289 1.289 0 0 0-.585-.684L58.88 2.238a1.281 1.281 0 0 0-.885-.163.804.804 0 0 0-.562.374c-.246.425 0 1.048.542 1.36l1.996 1.153Zm.665 1.582c-.468 0-.937-.127-1.362-.373l-1.998-1.152c-1.215-.703-1.688-2.169-1.053-3.269A2.19 2.19 0 0 1 57.73.702a2.69 2.69 0 0 1 1.848.326l2 1.152c.57.332.999.842 1.204 1.44.219.631.164 1.282-.154 1.83a2.179 2.179 0 0 1-1.505 1.048 2.72 2.72 0 0 1-.488.046Zm-2.918 8.404c-3.225 0-5.673-1.419-7.28-4.218a.699.699 0 0 1 1.213-.696c1.358 2.367 3.343 3.517 6.068 3.517h.025a.698.698 0 1 1 .003 1.397h-.03Zm-9.739 13.577a.697.697 0 0 1-.35-.095l-3.809-2.2a.699.699 0 0 1-.255-.952l5.628-9.748a.7.7 0 0 1 1.21.698l-5.28 9.143 2.6 1.5 5.28-9.143a.699.699 0 0 1 1.211.698l-5.63 9.75a.693.693 0 0 1-.605.349Z" fill="#EBF855"/><path d="M35.06 46.502a.697.697 0 0 1-.676-.872l2.043-7.939a.682.682 0 0 1 .07-.175l7.067-12.24a.7.7 0 0 1 1.21.699L37.758 38.13l-1.396 5.417 3.995-3.915 7.017-12.155a.7.7 0 0 1 1.21.698l-7.066 12.24a.714.714 0 0 1-.116.147l-5.853 5.739a.697.697 0 0 1-.488.2Z" fill="#EBF855"/><path d="M22.695 47.431a.7.7 0 0 1-.605-1.048l6.147-10.645c.907-1.57 3.071-2.027 4.82-1.015l4.396 2.538a.696.696 0 0 1 .269.961.698.698 0 0 1-.967.248l-4.396-2.537c-1.083-.626-2.39-.401-2.912.502L23.3 47.081a.699.699 0 0 1-.605.35Zm18.985 8.091a.697.697 0 0 1-.605-1.048l4.903-8.494c.243-.42.28-.933.105-1.445a2.483 2.483 0 0 0-1.125-1.329l-4.394-2.536a.7.7 0 0 1 .698-1.211l4.394 2.538c.831.48 1.453 1.22 1.748 2.086.31.9.232 1.822-.216 2.596l-4.903 8.493a.699.699 0 0 1-.605.35Z" fill="#EBF855"/></svg>