<svg xmlns="http://www.w3.org/2000/svg" width="36" height="37" viewBox="0 0 36 37" fill="none">
  <rect x="0.5" y="0.849609" width="35" height="35" rx="7.5" stroke="#F7F7F7"></rect>
  <path fill-rule="evenodd" clip-rule="evenodd" d="M9 18.3496C9 14.7545 9 12.9569 9.85669 11.6622C10.2392 11.084 10.7344 10.5889 11.3126 10.2063C12.6073 9.34961 14.4049 9.34961 18 9.34961C21.5951 9.34961 23.3927 9.34961 24.6874 10.2063C25.2656 10.5889 25.7608 11.084 26.1433 11.6622C27 12.9569 27 14.7545 27 18.3496C27 21.9447 27 23.7423 26.1433 25.0371C25.7608 25.6152 25.2656 26.1104 24.6874 26.4929C23.3927 27.3496 21.5951 27.3496 18 27.3496C14.4049 27.3496 12.6073 27.3496 11.3126 26.4929C10.7344 26.1104 10.2392 25.6152 9.85669 25.0371C9 23.7423 9 21.9447 9 18.3496ZM22.6593 18.3498C22.6593 20.9232 20.5732 23.0092 17.9998 23.0092C15.4265 23.0092 13.3404 20.9232 13.3404 18.3498C13.3404 15.7765 15.4265 13.6904 17.9998 13.6904C20.5732 13.6904 22.6593 15.7765 22.6593 18.3498ZM17.9998 21.4328C19.7025 21.4328 21.0828 20.0525 21.0828 18.3498C21.0828 16.6471 19.7025 15.2668 17.9998 15.2668C16.2971 15.2668 14.9168 16.6471 14.9168 18.3498C14.9168 20.0525 16.2971 21.4328 17.9998 21.4328ZM22.8433 14.5512C23.4479 14.5512 23.9381 14.061 23.9381 13.4563C23.9381 12.8517 23.4479 12.3615 22.8433 12.3615C22.2386 12.3615 21.7485 12.8517 21.7485 13.4563C21.7485 14.061 22.2386 14.5512 22.8433 14.5512Z" fill="#F7F7F7"></path>
</svg>
