<svg xmlns="http://www.w3.org/2000/svg" width="36" height="37" fill="none"><rect x=".5" y=".85" width="35" height="35" rx="7.5" stroke="#F7F7F7"/><path fill-rule="evenodd" clip-rule="evenodd" d="M9 18.35c0-3.596 0-5.393.857-6.688a5.16 5.16 0 0 1 1.456-1.456C12.607 9.35 14.405 9.35 18 9.35s5.393 0 6.687.856a5.159 5.159 0 0 1 1.456 1.456C27 12.957 27 14.754 27 18.35c0 3.595 0 5.392-.857 6.687a5.159 5.159 0 0 1-1.456 1.456c-1.294.857-3.092.857-6.687.857s-5.393 0-6.687-.857a5.159 5.159 0 0 1-1.456-1.456C9 23.742 9 21.945 9 18.35Zm13.66 0a4.66 4.66 0 1 1-9.32 0 4.66 4.66 0 0 1 9.32 0ZM18 21.433a3.083 3.083 0 1 0 0-6.166 3.083 3.083 0 0 0 0 6.166Zm4.843-6.882a1.095 1.095 0 1 0 0-2.19 1.095 1.095 0 0 0 0 2.19Z" fill="#F7F7F7"/></svg>