<svg xmlns="http://www.w3.org/2000/svg" width="36" height="37" fill="none"><rect x=".5" y=".85" width="35" height="35" rx="7.5" stroke="#F7F7F7"/><path d="M9 11.77c0-.578.203-1.054.608-1.429.405-.375.933-.563 1.581-.563.637 0 1.153.185 1.546.554.406.381.609.878.609 1.49a1.82 1.82 0 0 1-.591 1.385c-.405.38-.938.571-1.598.571h-.018c-.637 0-1.152-.19-1.546-.571-.394-.381-.591-.86-.591-1.437Zm.226 15.151V15.354h3.857v11.567H9.226Zm5.994 0h3.857v-6.459c0-.404.047-.715.14-.935a2.51 2.51 0 0 1 .738-.995c.33-.272.744-.407 1.242-.407 1.297 0 1.946.871 1.946 2.614v6.182H27V20.29c0-1.708-.405-3.004-1.216-3.887-.811-.883-1.882-1.325-3.214-1.325-1.495 0-2.659.64-3.493 1.922v.035h-.017l.017-.035v-1.645H15.22c.023.37.035 1.518.035 3.446 0 1.928-.012 4.635-.035 8.121Z" fill="#F7F7F7"/></svg>