<svg width="45" height="48" fill="none" xmlns="http://www.w3.org/2000/svg"><mask id="mask0_16_223" style="mask-type:luminance" maskUnits="userSpaceOnUse" x="7" y="0" width="28" height="48"><path d="M21.838 38.17C45 30.496 28.346 9.6 32.762.132 26.834 0 20.84 1.95 16.022 6.063 0 19.74 8.177 44.911 28.391 48c-15.687-7.053-21.698-30.476-2.58-42.51-.675 8.313 9.512 18.813-2.757 29.43-3.227-4.643-2.77-15.01-2.77-15.01-2.442 12.633 1.553 18.258 1.553 18.258" fill="#fff"/></mask><g mask="url('#mask0_16_223')"><path d="M45 0H0v48h45V0Z" fill="url('#paint0_linear_16_223')"/></g><g clip-path="url('#clip0_16_223')"><path fill-rule="evenodd" clip-rule="evenodd" d="M28.996 24.674c-.444 3.266-2.078 6.61-5.954 9.965-3.227-4.644-2.77-15.01-2.77-15.01-2.443 12.633 1.553 18.258 1.553 18.258 11.517-3.815 13.189-10.9 12.503-18.224-.71 7.127-5.163 9.992-5.163 9.992C31.299 23.098 28.15 16.4 28.15 16.4c.72 2.672 1.23 5.444.847 8.274" fill="#215605"/></g><g clip-path="url('#clip1_16_223')"><path fill-rule="evenodd" clip-rule="evenodd" d="M23.906 2.587S28.796.17 32.552.12l-8.646 2.467Z" fill="#EBF855"/></g><path fill-rule="evenodd" clip-rule="evenodd" d="M25.811 5.49s-3.807 6.313-5.526 14.42c0 0-.458 10.367 2.77 15.011 12.269-10.617 2.081-21.117 2.756-29.431" fill="url('#paint1_linear_16_223')"/><path fill-rule="evenodd" clip-rule="evenodd" d="M29.01 24.955c-6.988 13.413-7.834-8.545-7.834-8.545a45.874 45.874 0 0 0-.89 3.5s-.459 10.367 2.77 15.011c3.877-3.355 5.511-6.7 5.954-9.966Z" fill="#3E7820"/><g clip-path="url('#clip2_16_223')"><path fill-rule="evenodd" clip-rule="evenodd" d="M20.337 6.162s4.89-2.417 8.647-2.467c0 0 1.197 6.305 4.638 11.41-1.078-5.761-2.601-11.254-.864-14.979-5.927-.132-11.92 1.817-16.74 5.93-3.556 3.036-5.92 6.638-7.225 10.44 0 0 5.06-9.529 16.382-13.153 0 0-2.882 1.259-4.838 2.82" fill="#548E35"/></g><defs><clipPath id="clip0_16_223"><path fill="#fff" transform="translate(19.479 16.398)" d="M0 0h14.979v21.488H0z"/></clipPath><clipPath id="clip1_16_223"><path fill="#fff" transform="translate(23.906 .12)" d="M0 0h8.646v2.467H0z"/></clipPath><clipPath id="clip2_16_223"><path fill="#fff" transform="translate(8.793 .12)" d="M0 0h24.829v16.375H0z"/></clipPath><linearGradient id="paint0_linear_16_223" x1="17.965" y1="40.577" x2="32.473" y2="-14.832" gradientUnits="userSpaceOnUse"><stop stop-color="#34623F"/><stop offset="1" stop-color="#8DC299"/></linearGradient><linearGradient id="paint1_linear_16_223" x1="24.702" y1="5.49" x2="24.702" y2="34.921" gradientUnits="userSpaceOnUse"><stop stop-color="#3E7820" stop-opacity=".3"/><stop offset="1" stop-color="#3E7820"/></linearGradient></defs></svg>