<svg xmlns="http://www.w3.org/2000/svg" width="24" height="24" viewBox="0 0 24 24" fill="none">
  <path d="M20.75 4H2.75C2.55109 4 2.36032 4.07902 2.21967 4.21967C2.07902 4.36032 2 4.55109 2 4.75V17.5C2 17.8978 2.15804 18.2794 2.43934 18.5607C2.72064 18.842 3.10218 19 3.5 19H20C20.3978 19 20.7794 18.842 21.0607 18.5607C21.342 18.2794 21.5 17.8978 21.5 17.5V4.75C21.5 4.55109 21.421 4.36032 21.2803 4.21967C21.1397 4.07902 20.9489 4 20.75 4ZM18.8216 5.5L11.75 11.9828L4.67844 5.5H18.8216ZM20 17.5H3.5V6.45531L11.2428 13.5531C11.3812 13.6801 11.5622 13.7506 11.75 13.7506C11.9378 13.7506 12.1188 13.6801 12.2572 13.5531L20 6.45531V17.5Z" fill="#545454"></path>
</svg>
