<svg xmlns="http://www.w3.org/2000/svg" width="24" height="24" viewBox="0 0 24 24" fill="none">
  <path d="M12.25 6.5C11.5083 6.5 10.7833 6.71993 10.1666 7.13199C9.54993 7.54404 9.06928 8.12971 8.78545 8.81494C8.50162 9.50016 8.42736 10.2542 8.57205 10.9816C8.71675 11.709 9.0739 12.3772 9.59835 12.9017C10.1228 13.4261 10.791 13.7833 11.5184 13.9279C12.2458 14.0726 12.9998 13.9984 13.6851 13.7145C14.3703 13.4307 14.956 12.9501 15.368 12.3334C15.7801 11.7167 16 10.9917 16 10.25C16 9.25544 15.6049 8.30161 14.9017 7.59835C14.1984 6.89509 13.2446 6.5 12.25 6.5ZM12.25 12.5C11.805 12.5 11.37 12.368 11 12.1208C10.63 11.8736 10.3416 11.5222 10.1713 11.111C10.001 10.6999 9.95642 10.2475 10.0432 9.81105C10.13 9.37459 10.3443 8.97368 10.659 8.65901C10.9737 8.34434 11.3746 8.13005 11.811 8.04323C12.2475 7.95642 12.6999 8.00097 13.111 8.17127C13.5222 8.34157 13.8736 8.62996 14.1208 8.99997C14.368 9.36998 14.5 9.80499 14.5 10.25C14.5 10.8467 14.2629 11.419 13.841 11.841C13.419 12.2629 12.8467 12.5 12.25 12.5ZM12.25 2C10.0627 2.00248 7.96575 2.87247 6.41911 4.41911C4.87247 5.96575 4.00248 8.06273 4 10.25C4 13.1938 5.36031 16.3138 7.9375 19.2734C9.09552 20.6108 10.3989 21.8151 11.8234 22.8641C11.9495 22.9524 12.0998 22.9998 12.2537 22.9998C12.4077 22.9998 12.558 22.9524 12.6841 22.8641C14.106 21.8147 15.4068 20.6104 16.5625 19.2734C19.1359 16.3138 20.5 13.1938 20.5 10.25C20.4975 8.06273 19.6275 5.96575 18.0809 4.41911C16.5343 2.87247 14.4373 2.00248 12.25 2ZM12.25 21.3125C10.7003 20.0938 5.5 15.6172 5.5 10.25C5.5 8.45979 6.21116 6.7429 7.47703 5.47703C8.7429 4.21116 10.4598 3.5 12.25 3.5C14.0402 3.5 15.7571 4.21116 17.023 5.47703C18.2888 6.7429 19 8.45979 19 10.25C19 15.6153 13.7997 20.0938 12.25 21.3125Z" fill="#545454"></path>
</svg>
