<svg xmlns="http://www.w3.org/2000/svg" width="24" height="24" fill="none"><path d="m20.847 15.605-4.416-1.979-.013-.005a1.5 1.5 0 0 0-1.492.184l-2.282 1.945c-1.446-.702-2.938-2.184-3.64-3.61l1.948-2.317a1.5 1.5 0 0 0 .177-1.484v-.011L9.144 3.904a1.5 1.5 0 0 0-1.558-.893A5.274 5.274 0 0 0 3 8.25c0 7.444 6.056 13.5 13.5 13.5a5.274 5.274 0 0 0 5.239-4.586 1.5 1.5 0 0 0-.892-1.559ZM16.5 20.25a12.014 12.014 0 0 1-12-12A3.769 3.769 0 0 1 7.77 4.5v.011l1.968 4.406-1.938 2.32a.574.574 0 0 0-.053.072 1.5 1.5 0 0 0-.094 1.472c.85 1.737 2.6 3.474 4.355 4.323a1.5 1.5 0 0 0 1.477-.107.804.804 0 0 0 .07-.053L15.832 15l4.407 1.973h.01a3.77 3.77 0 0 1-3.75 3.277Z" fill="#545454"/></svg>