<svg xmlns="http://www.w3.org/2000/svg" width="24" height="24" viewBox="0 0 24 24" fill="none">
  <path d="M20.8472 15.6054L16.4306 13.6264L16.4184 13.6207C16.1892 13.5227 15.939 13.4833 15.6907 13.5062C15.4424 13.5292 15.2037 13.6136 14.9963 13.752C14.9718 13.7681 14.9484 13.7857 14.9259 13.8045L12.6441 15.7498C11.1984 15.0476 9.70595 13.5664 9.00376 12.1395L10.9519 9.82294C10.9706 9.7995 10.9884 9.77606 11.0053 9.75075C11.1407 9.54384 11.2229 9.30667 11.2445 9.06035C11.2661 8.81402 11.2264 8.56618 11.1291 8.33887V8.32762L9.14438 3.90356C9.0157 3.60662 8.79444 3.35926 8.51362 3.19841C8.2328 3.03756 7.9075 2.97184 7.58626 3.01106C6.31592 3.17822 5.14986 3.80209 4.30588 4.76615C3.4619 5.73021 2.99771 6.96852 3.00001 8.24981C3.00001 15.6936 9.05626 21.7498 16.5 21.7498C17.7813 21.7521 19.0196 21.2879 19.9837 20.4439C20.9477 19.6 21.5716 18.4339 21.7388 17.1636C21.7781 16.8424 21.7125 16.5172 21.5518 16.2364C21.3911 15.9556 21.144 15.7343 20.8472 15.6054ZM16.5 20.2498C13.3185 20.2463 10.2682 18.9809 8.01856 16.7313C5.76888 14.4816 4.50348 11.4313 4.50001 8.24981C4.49648 7.33433 4.82631 6.44887 5.42789 5.75879C6.02947 5.0687 6.86167 4.62118 7.76907 4.49981C7.7687 4.50355 7.7687 4.50732 7.76907 4.51106L9.73782 8.91731L7.80001 11.2367C7.78034 11.2593 7.76247 11.2835 7.74657 11.3089C7.60549 11.5254 7.52273 11.7746 7.5063 12.0325C7.48988 12.2904 7.54035 12.5481 7.65282 12.7807C8.5022 14.5179 10.2525 16.2551 12.0084 17.1036C12.2428 17.215 12.502 17.2637 12.7608 17.245C13.0196 17.2262 13.2692 17.1407 13.485 16.9967C13.5091 16.9805 13.5322 16.9629 13.5544 16.9442L15.8334 14.9998L20.2397 16.9732C20.2397 16.9732 20.2472 16.9732 20.25 16.9732C20.1301 17.8819 19.6833 18.7158 18.9931 19.3189C18.3028 19.922 17.4166 20.2529 16.5 20.2498Z" fill="#545454"></path>
</svg>
