<svg xmlns="http://www.w3.org/2000/svg" width="64" height="64" fill="none"><path d="M26.314 51.168a.427.427 0 0 1-.302-.125L13.954 38.985a.426.426 0 0 1-.056-.533c3.51-5.438 8.306-11.252 13.869-16.814C46.368 3.035 58.75 5.289 59.27 5.394a.427.427 0 0 1 .333.334c.105.518 2.36 12.9-16.244 31.503-5.562 5.562-11.376 10.358-16.814 13.866a.422.422 0 0 1-.231.07ZM14.802 38.624l11.57 11.569a105.085 105.085 0 0 0 16.383-13.568C59.438 19.942 59.017 8.169 58.805 6.188c-1.978-.213-13.75-.634-30.436 16.05a105.116 105.116 0 0 0-13.567 16.388v-.002Z" fill="#34623F"/><path d="M23.047 52.072a.426.426 0 0 1-.302-.125l-9.695-9.695a.427.427 0 0 1 0-.603l2.085-2.086a.44.44 0 0 1 .604 0l9.695 9.695a.427.427 0 0 1 0 .603l-2.086 2.086a.426.426 0 0 1-.301.125ZM13.954 41.95l9.093 9.092 1.482-1.482-9.092-9.093-1.482 1.483Zm3.247-7.076a.427.427 0 0 1-.284-.108c-2.11-1.888-4.8-3-7.627-3.153a.421.421 0 0 1-.397-.261.427.427 0 0 1 .092-.467l3.106-3.106a.421.421 0 0 1 .108-.079c3.3-1.674 7.365-1.091 10.539-.396a.427.427 0 0 1-.183.834c-3.014-.66-6.858-1.221-9.908.293l-2.399 2.397a13.423 13.423 0 0 1 7.238 3.301.427.427 0 0 1-.285.745Z" fill="#34623F"/><path d="M9.286 31.613a.427.427 0 0 1-.302-.125L6.38 28.883a.426.426 0 0 1 0-.604l6.184-6.183c.78-.781 3.47-1.2 4-1.275a.426.426 0 0 1 .484.483c-.076.53-.495 3.22-1.275 4l-6.184 6.184a.427.427 0 0 1-.302.125Zm-2.002-3.032 2.002 2.002 5.882-5.882c.38-.38.74-1.826.939-2.944-1.116.2-2.56.56-2.942.938l-5.881 5.886Zm26.527 27.557a.422.422 0 0 1-.356-.192.426.426 0 0 1-.07-.238 12.494 12.494 0 0 0-3.154-7.627.427.427 0 1 1 .637-.569 13.426 13.426 0 0 1 3.302 7.237l2.395-2.397c1.515-3.05.954-6.894.293-9.908a.426.426 0 1 1 .834-.183c.695 3.173 1.278 7.237-.395 10.539a.44.44 0 0 1-.08.109l-3.105 3.105a.426.426 0 0 1-.301.124Z" fill="#34623F"/><path d="M36.416 58.744a.427.427 0 0 1-.301-.125l-2.606-2.606a.427.427 0 0 1 0-.603l6.184-6.184c.78-.781 3.47-1.2 4-1.275a.427.427 0 0 1 .484.483c-.076.53-.495 3.22-1.275 4l-6.184 6.185a.427.427 0 0 1-.302.125Zm-2.002-3.033 2.002 2.002 5.882-5.882c.38-.38.741-1.826.94-2.942-1.117.2-2.56.56-2.945.938l-5.879 5.884Zm22.737-38.516a.424.424 0 0 1-.092-.01 12.121 12.121 0 0 1-9.245-9.246.426.426 0 1 1 .833-.183 11.268 11.268 0 0 0 8.595 8.594.426.426 0 0 1-.091.844Zm-11.632 6.133a3.85 3.85 0 1 1-.003-7.7 3.85 3.85 0 0 1 .003 7.7Zm0-6.847a2.996 2.996 0 1 0 0 5.993 2.996 2.996 0 0 0 0-5.993ZM22.872 36.558a.426.426 0 0 1-.302-.728l4.32-4.32a.426.426 0 1 1 .604.603l-4.32 4.32a.423.423 0 0 1-.302.125Zm1.634 4.36a.427.427 0 0 1-.302-.729l7.047-7.046a.426.426 0 0 1 .603.603l-7.047 7.047a.427.427 0 0 1-.301.124Zm4.36 1.634a.426.426 0 0 1-.302-.728l4.32-4.32a.43.43 0 0 1 .609-.005.425.425 0 0 1-.005.608l-4.32 4.32a.427.427 0 0 1-.302.125ZM10.56 58.042c-2.076.001-4.133-.403-6.055-1.189a.427.427 0 0 1 .177-.813A3.628 3.628 0 0 0 7.2 54.813a6.615 6.615 0 0 0 1.775-4.924 7.997 7.997 0 0 1 1.34-4.64 5.643 5.643 0 0 1 4.615-2.156c.11.003.213.048.29.125l6.4 6.4c.076.075.12.177.125.284.085 1.996-.955 3.834-3.09 5.461a13.104 13.104 0 0 1-8.094 2.68Zm-4.352-1.487c2.36.696 7.43 1.561 11.929-1.87 1.84-1.403 2.767-2.944 2.759-4.585l-6.157-6.157a4.826 4.826 0 0 0-3.755 1.837 7.29 7.29 0 0 0-1.155 4.088 7.457 7.457 0 0 1-2.024 5.549c-.459.474-1 .86-1.597 1.138Z" fill="#34623F"/><path d="M12.303 55.27a.427.427 0 0 1-.386-.247c-.091-.197-2.196-4.85.944-8.968.9-1.178 1.909-1.84 3-1.968a.427.427 0 0 1 .352.122l4.43 4.431a.426.426 0 0 1 .122.348 3.717 3.717 0 0 1-1.365 2.464c-.887.6-1.939.91-3.01.885a3.958 3.958 0 0 0-2.944 1.056 2.104 2.104 0 0 0-.716 1.454.427.427 0 0 1-.427.422Zm3.46-10.304a3.874 3.874 0 0 0-2.223 1.606c-1.92 2.517-1.63 5.334-1.242 6.89.156-.244.338-.47.545-.673a4.803 4.803 0 0 1 3.57-1.307 4.283 4.283 0 0 0 2.457-.698 2.906 2.906 0 0 0 1.018-1.693l-4.125-4.125Z" fill="#34623F"/><path d="M15.49 50.343a4.975 4.975 0 0 1-.586-.03.427.427 0 0 1-.37-.37c-.017-.138-.402-3.421 2.162-4.818a.427.427 0 0 1 .506.073l2.447 2.447a.426.426 0 0 1 .074.506c-1.057 1.94-3.195 2.192-4.232 2.192Zm-.127-.857c.745.016 2.509-.112 3.447-1.475l-1.973-1.974c-1.363.94-1.488 2.7-1.475 3.449Zm12.523-23.268a.427.427 0 0 1-.308-.721c.658-.69 1.325-1.373 1.998-2.049a90.578 90.578 0 0 1 2.203-2.128.426.426 0 1 1 .583.622 90.66 90.66 0 0 0-2.182 2.11c-.67.67-1.331 1.349-1.985 2.034a.427.427 0 0 1-.309.132Zm6.454-6.207a.428.428 0 0 1-.28-.749 59.75 59.75 0 0 1 10.93-7.7.426.426 0 1 1 .402.754 58.904 58.904 0 0 0-10.772 7.588.425.425 0 0 1-.28.107Z" fill="#34623F"/></svg>