<svg xmlns="http://www.w3.org/2000/svg" width="64" height="64" viewBox="0 0 64 64" fill="none">
  <path d="M22.7755 44.0197C22.7491 44.0196 22.7229 44.0172 22.697 44.0125C22.596 43.9937 22.5052 43.9391 22.4413 43.8588C22.3773 43.7784 22.3445 43.6777 22.3488 43.5751C22.3304 42.3888 22.0356 41.2232 21.4878 40.1708C18.9406 41.2306 16.384 40.8645 13.8825 39.0828C13.0078 39.8448 12.0683 41.6735 11.9296 43.6242C11.9222 43.7248 11.8793 43.8196 11.8086 43.8916C11.7379 43.9636 11.644 44.0082 11.5435 44.0176C11.443 44.0269 11.3425 44.0003 11.2597 43.9425C11.177 43.8847 11.1174 43.7994 11.0916 43.7019C9.77622 38.6723 10.6377 35.3311 13.5164 34.2853C16.1766 32.5902 18.7068 32.5787 21.0368 34.2516C21.5386 34.6179 22.1415 34.8198 22.7627 34.8293C23.005 34.8073 23.2492 34.837 23.4792 34.9165C23.7091 34.996 23.9195 35.1235 24.0964 35.2905C24.1932 35.4057 24.2633 35.5408 24.302 35.6861C24.3406 35.8314 24.3468 35.9835 24.32 36.1315C24.2575 36.6089 24.0875 37.066 23.8229 37.4683C23.66 37.7349 23.6425 37.778 23.6979 37.9376C23.9603 38.6919 24.012 41.2728 23.1804 43.7309C23.1516 43.8153 23.097 43.8886 23.0244 43.9404C22.9517 43.9922 22.8647 44.02 22.7755 44.0197ZM17.4217 33.8565C16.1708 33.9017 14.9599 34.3092 13.9362 35.0294C13.9082 35.047 13.8783 35.0613 13.847 35.0721C11.2922 35.9707 11.1241 38.9496 11.5004 41.4751C11.9697 40.0406 12.7706 38.7687 13.6422 38.1927C13.7158 38.1442 13.8026 38.1196 13.8907 38.1223C13.9787 38.1251 14.0638 38.155 14.1342 38.2081C16.6029 40.0671 19.0101 40.4024 21.4938 39.2342C21.5903 39.1886 21.7004 39.1808 21.8024 39.2124C21.9044 39.244 21.9908 39.3127 22.0446 39.4049C22.3939 40.0213 22.6716 40.6757 22.8723 41.3552C23.0651 40.3181 23.0715 39.255 22.8911 38.2158C22.821 38.0158 22.8027 37.8013 22.8381 37.5924C22.8735 37.3834 22.9613 37.1869 23.0933 37.0211C23.2967 36.718 23.427 36.3719 23.4739 36.0099C23.4906 35.8913 23.4607 35.8563 23.4492 35.8435C23.2441 35.7082 22.9977 35.65 22.7537 35.6792C21.957 35.6683 21.1834 35.4105 20.5393 34.9415C19.6429 34.2557 18.5502 33.8754 17.4217 33.8565ZM25.4912 59.7334H23.808C23.6948 59.7334 23.5863 59.6885 23.5063 59.6085C23.4263 59.5284 23.3813 59.4199 23.3813 59.3068C23.3813 59.1936 23.4263 59.0851 23.5063 59.0051C23.5863 58.925 23.6948 58.8801 23.808 58.8801H25.4921C25.8768 58.8801 26.2458 58.7273 26.5178 58.4552C26.7899 58.1832 26.9427 57.8142 26.9427 57.4294V55.4369C26.9414 54.2984 26.4885 53.2069 25.6834 52.4018C24.8784 51.5967 23.7869 51.1438 22.6483 51.1425H21.1977C19.9893 51.9425 18.5722 52.3691 17.123 52.3691C15.6738 52.3691 14.2567 51.9425 13.0483 51.1425H11.5793C10.4407 51.1437 9.34917 51.5966 8.54409 52.4017C7.739 53.2068 7.28616 54.2983 7.28491 55.4369V57.4294C7.28491 57.8142 7.43775 58.1832 7.7098 58.4552C7.98186 58.7273 8.35084 58.8801 8.73558 58.8801H10.4196C10.5328 58.8801 10.6413 58.925 10.7213 59.0051C10.8013 59.0851 10.8463 59.1936 10.8463 59.3068C10.8463 59.4199 10.8013 59.5284 10.7213 59.6085C10.6413 59.6885 10.5328 59.7334 10.4196 59.7334H8.73601C8.12519 59.7326 7.53962 59.4896 7.10771 59.0577C6.67579 58.6258 6.4328 58.0402 6.43201 57.4294V55.4369C6.43348 54.0721 6.9763 52.7636 7.94136 51.7985C8.90643 50.8335 10.2149 50.2906 11.5797 50.2892H13.1742C13.2595 50.2891 13.3429 50.3147 13.4136 50.3625C14.5028 51.1146 15.7955 51.5164 17.1192 51.5145C18.4447 51.5124 19.7386 51.1097 20.8312 50.3591C20.9015 50.3121 20.9842 50.287 21.0688 50.287H22.6475C24.0123 50.2886 25.3207 50.8315 26.2857 51.7965C27.2508 52.7616 27.7936 54.07 27.7952 55.4348V57.4273C27.795 58.0385 27.5522 58.6246 27.1203 59.057C26.6883 59.4893 26.1024 59.7326 25.4912 59.7334Z" fill="#34623F"></path>
  <path d="M17.1379 50.232C14.2366 50.232 11.7462 47.5316 11.0835 43.6652C11.0643 43.5536 11.0902 43.4389 11.1555 43.3464C11.2208 43.254 11.3201 43.1912 11.4317 43.1719C11.5433 43.1527 11.6579 43.1786 11.7504 43.2439C11.8429 43.3092 11.9057 43.4085 11.9249 43.5201C12.5154 46.9693 14.659 49.3778 17.1379 49.3778C19.6169 49.3778 21.7639 46.9701 22.3548 43.5201C22.3635 43.4642 22.3833 43.4106 22.4129 43.3624C22.4425 43.3142 22.4814 43.2724 22.5274 43.2394C22.5733 43.2064 22.6254 43.1828 22.6805 43.1701C22.7356 43.1574 22.7927 43.1558 22.8485 43.1653C22.9042 43.1749 22.9575 43.1954 23.0053 43.2258C23.053 43.2561 23.0943 43.2957 23.1266 43.3421C23.1589 43.3886 23.1816 43.441 23.1935 43.4963C23.2054 43.5516 23.2062 43.6087 23.1958 43.6643C22.5336 47.5308 20.0427 50.232 17.1379 50.232ZM23.8106 59.7334H10.4235C10.3103 59.7334 10.2018 59.6885 10.1218 59.6085C10.0418 59.5285 9.99682 59.4199 9.99682 59.3068L9.99341 55.6426C9.99341 55.5294 10.0384 55.4209 10.1184 55.3409C10.1984 55.2608 10.3069 55.2159 10.4201 55.2159C10.5332 55.2159 10.6418 55.2608 10.7218 55.3409C10.8018 55.4209 10.8467 55.5294 10.8467 55.6426L10.8497 58.8801H23.3835L23.3805 55.643C23.3805 55.5298 23.4255 55.4213 23.5055 55.3413C23.5855 55.2613 23.694 55.2163 23.8072 55.2163C23.8635 55.2152 23.9195 55.2255 23.9717 55.2465C24.024 55.2676 24.0715 55.299 24.1113 55.3388C24.1512 55.3787 24.1826 55.4261 24.2036 55.4784C24.2247 55.5307 24.2349 55.5866 24.2338 55.643L24.2372 59.3068C24.2372 59.4199 24.1923 59.5285 24.1123 59.6085C24.0323 59.6885 23.9237 59.7334 23.8106 59.7334Z" fill="#34623F"></path>
  <path d="M13.1729 51.1413C13.0909 51.1414 13.0107 51.1179 12.9418 51.0736C12.8728 51.0293 12.8181 50.9661 12.7841 50.8916C12.7502 50.817 12.7384 50.7342 12.7502 50.6532C12.762 50.5721 12.7969 50.4961 12.8507 50.4343L14.3202 48.7439C14.357 48.7016 14.4017 48.6669 14.4519 48.6419C14.5021 48.6169 14.5567 48.6021 14.6126 48.5982C14.6685 48.5943 14.7247 48.6014 14.7778 48.6192C14.831 48.637 14.8801 48.6651 14.9224 48.7019C14.9647 48.7387 14.9994 48.7834 15.0244 48.8336C15.0494 48.8838 15.0643 48.9384 15.0682 48.9943C15.0721 49.0502 15.0649 49.1064 15.0471 49.1595C15.0293 49.2127 15.0012 49.2618 14.9644 49.3041L13.495 50.9946C13.4549 51.0407 13.4054 51.0776 13.3499 51.1029C13.2943 51.1283 13.2339 51.1413 13.1729 51.1413ZM21.1029 51.1413C21.0418 51.1413 20.9815 51.1283 20.9259 51.1029C20.8703 51.0776 20.8208 51.0407 20.7808 50.9946L19.3109 49.3041C19.2741 49.2618 19.246 49.2127 19.2282 49.1595C19.2104 49.1064 19.2033 49.0502 19.2072 48.9943C19.2111 48.9384 19.226 48.8838 19.251 48.8336C19.276 48.7834 19.3106 48.7387 19.3529 48.7019C19.3952 48.6651 19.4444 48.637 19.4975 48.6192C19.5507 48.6014 19.6068 48.5943 19.6627 48.5982C19.7187 48.6021 19.7733 48.6169 19.8234 48.6419C19.8736 48.6669 19.9184 48.7016 19.9552 48.7439L21.4246 50.4343C21.4784 50.4961 21.5133 50.572 21.5251 50.6531C21.537 50.7341 21.5252 50.8168 21.4913 50.8914C21.4574 50.9659 21.4027 51.0291 21.3338 51.0735C21.265 51.1178 21.1848 51.1413 21.1029 51.1413ZM38.7037 15.2813C38.6775 15.2814 38.6514 15.279 38.6257 15.274C38.5247 15.2552 38.4339 15.2007 38.37 15.1203C38.306 15.04 38.2732 14.9393 38.2775 14.8367C38.2595 13.6506 37.9654 12.485 37.4186 11.4323C34.871 12.4922 32.3157 12.1265 29.8133 10.3435C28.9382 11.1055 27.9987 12.9342 27.86 14.8849C27.8526 14.9855 27.8097 15.0803 27.739 15.1523C27.6683 15.2243 27.5744 15.269 27.4739 15.2783C27.3734 15.2876 27.2729 15.261 27.1901 15.2032C27.1074 15.1454 27.0479 15.0601 27.022 14.9626C25.7045 9.93302 26.5659 6.59179 29.4447 5.54688C32.1053 3.85216 34.6359 3.84021 36.9651 5.51317C37.4669 5.87936 38.0698 6.08104 38.6909 6.09045C38.9333 6.06839 39.1775 6.0981 39.4074 6.17762C39.6374 6.25713 39.8478 6.38464 40.0247 6.55168C40.1214 6.66701 40.1915 6.80223 40.23 6.94773C40.2685 7.09324 40.2745 7.24543 40.2474 7.39349C40.1849 7.87091 40.0149 8.32795 39.7504 8.73024C39.5874 8.99691 39.5699 9.04043 39.6253 9.19957C39.8877 9.9535 39.9398 12.5344 39.1078 14.9924C39.079 15.0767 39.0246 15.1499 38.9521 15.2017C38.8797 15.2535 38.7928 15.2813 38.7037 15.2813ZM33.3499 5.12021C32.1001 5.16523 30.8901 5.57177 29.8666 6.29056C29.8387 6.30831 29.8088 6.32263 29.7775 6.33323C27.2226 7.23136 27.0545 10.2108 27.4308 12.7358C27.9001 11.3018 28.701 10.0294 29.5731 9.45387C29.6465 9.40534 29.7332 9.38073 29.8212 9.3834C29.9092 9.38608 29.9942 9.41591 30.0646 9.4688C32.5333 11.3282 34.941 11.664 37.4246 10.4954C37.521 10.4504 37.6307 10.4431 37.7322 10.4748C37.8337 10.5066 37.9197 10.5751 37.9733 10.6669C38.3223 11.2834 38.5999 11.9377 38.8006 12.6172C38.9937 11.5802 39 10.517 38.8194 9.47776C38.7493 9.27777 38.7311 9.06329 38.7665 8.85436C38.8019 8.64543 38.8896 8.44888 39.0216 8.28309C39.2249 7.98012 39.3552 7.63414 39.4022 7.27232C39.4188 7.15328 39.389 7.11872 39.3779 7.10549C39.1726 6.97033 38.9261 6.91215 38.682 6.94123C37.8854 6.93035 37.1117 6.67277 36.4676 6.20395C35.571 5.51858 34.4783 5.13874 33.3499 5.12021ZM41.4195 30.995H39.7354C39.6223 30.995 39.5137 30.95 39.4337 30.87C39.3537 30.79 39.3088 30.6815 39.3088 30.5683C39.3088 30.4552 39.3537 30.3466 39.4337 30.2666C39.5137 30.1866 39.6223 30.1417 39.7354 30.1417H41.4195C41.61 30.1417 41.7986 30.1041 41.9746 30.0312C42.1506 29.9583 42.3106 29.8515 42.4453 29.7168C42.58 29.5821 42.6868 29.4221 42.7597 29.2461C42.8326 29.0701 42.8701 28.8815 42.8701 28.691V26.6985C42.8689 25.56 42.4161 24.4685 41.6111 23.6634C40.8061 22.8583 39.7147 22.4054 38.5762 22.4041H37.1255C35.9171 23.204 34.5 23.6306 33.0508 23.6306C31.6017 23.6306 30.1845 23.204 28.9762 22.4041H27.5076C26.369 22.4053 25.2774 22.8581 24.4724 23.6632C23.6673 24.4683 23.2144 25.5599 23.2132 26.6985V28.691C23.2132 28.8815 23.2507 29.0701 23.3236 29.2461C23.3965 29.4221 23.5034 29.5821 23.6381 29.7168C23.7728 29.8515 23.9327 29.9583 24.1087 30.0312C24.2847 30.1041 24.4734 30.1417 24.6639 30.1417H26.3479C26.4611 30.1417 26.5696 30.1866 26.6496 30.2666C26.7296 30.3466 26.7746 30.4552 26.7746 30.5683C26.7746 30.6815 26.7296 30.79 26.6496 30.87C26.5696 30.95 26.4611 30.995 26.3479 30.995H24.6643C24.0534 30.9943 23.4678 30.7514 23.0359 30.3194C22.6039 29.8875 22.361 29.3018 22.3603 28.691V26.6985C22.3618 25.3337 22.9045 24.0253 23.8695 23.0602C24.8345 22.0952 26.1428 21.5523 27.5076 21.5507H29.1025C29.1878 21.5507 29.2712 21.5763 29.3418 21.6241C30.4307 22.3769 31.7233 22.7796 33.047 22.7782C34.3725 22.7759 35.6663 22.3731 36.759 21.6228C36.8291 21.5756 36.9117 21.5505 36.9962 21.5507H38.5749C39.9397 21.5523 41.2481 22.0952 42.2131 23.0602C43.1782 24.0252 43.721 25.3337 43.7226 26.6985V28.691C43.722 29.3017 43.4791 29.8872 43.0474 30.3191C42.6156 30.751 42.0302 30.9941 41.4195 30.995Z" fill="#34623F"></path>
  <path d="M33.0667 21.4939C30.1654 21.4939 27.6749 18.7936 27.0123 14.9267C26.9932 14.8151 27.0192 14.7005 27.0845 14.6081C27.1499 14.5157 27.2493 14.453 27.3609 14.4339C27.4725 14.4147 27.5871 14.4407 27.6795 14.5061C27.7719 14.5715 27.8346 14.6709 27.8537 14.7825C28.4446 18.2316 30.5878 20.6406 33.0667 20.6406C35.5456 20.6406 37.6926 18.2316 38.2836 14.7825C38.293 14.7272 38.3133 14.6744 38.3432 14.627C38.3731 14.5795 38.412 14.5385 38.4578 14.5061C38.5035 14.4737 38.5552 14.4507 38.6099 14.4383C38.6645 14.4259 38.7211 14.4244 38.7764 14.4339C38.8316 14.4433 38.8845 14.4636 38.9319 14.4935C38.9793 14.5234 39.0204 14.5623 39.0527 14.6081C39.0851 14.6538 39.1081 14.7055 39.1205 14.7602C39.1329 14.8149 39.1344 14.8714 39.125 14.9267C38.4619 18.7936 35.9706 21.4939 33.0667 21.4939ZM39.7389 30.9949H26.3518C26.2387 30.9949 26.1301 30.95 26.0501 30.87C25.9701 30.79 25.9252 30.6814 25.9252 30.5683L25.9218 26.9045C25.9218 26.7913 25.9667 26.6828 26.0467 26.6028C26.1267 26.5228 26.2353 26.4778 26.3484 26.4778C26.4616 26.4778 26.5701 26.5228 26.6501 26.6028C26.7301 26.6828 26.7751 26.7913 26.7751 26.9045L26.7781 30.142H39.3118L39.3088 26.9053C39.3088 26.7922 39.3538 26.6837 39.4338 26.6036C39.5138 26.5236 39.6224 26.4787 39.7355 26.4787C39.8487 26.4787 39.9572 26.5236 40.0372 26.6036C40.1172 26.6837 40.1622 26.7922 40.1622 26.9053L40.1656 30.5691C40.1656 30.6823 40.1206 30.7908 40.0406 30.8708C39.9606 30.9508 39.8521 30.9958 39.7389 30.9958V30.9949Z" fill="#34623F"></path>
  <path d="M29.1012 22.4029C29.0193 22.4029 28.9392 22.3794 28.8704 22.3351C28.8015 22.2908 28.7468 22.2277 28.7129 22.1532C28.6789 22.0787 28.6671 21.9961 28.6788 21.9151C28.6906 21.834 28.7254 21.7581 28.7791 21.6963L30.2506 20.0059C30.2862 19.9599 30.3308 19.9217 30.3817 19.8936C30.4326 19.8655 30.4886 19.848 30.5465 19.8424C30.6044 19.8367 30.6627 19.8429 30.7181 19.8606C30.7735 19.8783 30.8246 19.9072 30.8685 19.9454C30.9123 19.9836 30.9478 20.0303 30.9729 20.0828C30.998 20.1352 31.0121 20.1922 31.0144 20.2503C31.0167 20.3084 31.0071 20.3663 30.9862 20.4205C30.9652 20.4748 30.9335 20.5242 30.8928 20.5657L29.4233 22.2565C29.3832 22.3026 29.3337 22.3394 29.2782 22.3647C29.2226 22.3899 29.1622 22.403 29.1012 22.4029ZM37.0312 22.4029C36.9702 22.403 36.9099 22.3899 36.8543 22.3647C36.7987 22.3394 36.7492 22.3026 36.7091 22.2565L35.2392 20.5657C35.2025 20.5234 35.1744 20.4742 35.1566 20.4211C35.1389 20.3679 35.1317 20.3118 35.1357 20.2559C35.1396 20.2 35.1545 20.1454 35.1795 20.0953C35.2045 20.0451 35.2392 20.0004 35.2815 19.9636C35.3238 19.9269 35.3729 19.8988 35.4261 19.8811C35.4792 19.8633 35.5353 19.8562 35.5912 19.8601C35.6471 19.864 35.7017 19.8789 35.7519 19.9039C35.802 19.9289 35.8467 19.9636 35.8835 20.0059L37.3529 21.6963C37.4066 21.7581 37.4414 21.834 37.4532 21.9149C37.4649 21.9959 37.4531 22.0786 37.4192 22.153C37.3853 22.2275 37.3307 22.2906 37.2619 22.3349C37.1931 22.3792 37.1131 22.4028 37.0312 22.4029ZM52.5483 44.02C52.5221 44.0199 52.4959 44.0174 52.4702 44.0127C52.3692 43.9939 52.2784 43.9393 52.2145 43.859C52.1505 43.7787 52.1177 43.678 52.122 43.5754C52.1034 42.3891 51.8086 41.2235 51.261 40.171C48.7138 41.2308 46.1581 40.8648 43.6552 39.0821C42.7806 39.8442 41.841 41.6729 41.7028 43.6236C41.6956 43.7245 41.6529 43.8195 41.5821 43.8918C41.5114 43.9641 41.4173 44.0089 41.3166 44.0182C41.2159 44.0275 41.1151 44.0008 41.0323 43.9427C40.9495 43.8847 40.89 43.7991 40.8644 43.7012C39.549 38.6717 40.4104 35.3305 43.2892 34.2847C45.9498 32.5896 48.48 32.578 50.8096 34.251C51.3113 34.6173 51.9143 34.8191 52.5354 34.8287C52.7778 34.8066 53.022 34.8363 53.252 34.9158C53.4819 34.9953 53.6923 35.1228 53.8692 35.2899C53.9659 35.4053 54.036 35.5405 54.0745 35.686C54.113 35.8315 54.1189 35.9837 54.0919 36.1317C54.0294 36.609 53.8594 37.0659 53.5949 37.4681C53.4319 37.7352 53.4144 37.7783 53.4698 37.9374C53.7327 38.6917 53.7843 41.2727 52.9523 43.7307C52.9236 43.8151 52.8692 43.8883 52.7967 43.9402C52.7243 43.9921 52.6374 44.02 52.5483 44.02ZM47.1944 33.8568C45.9436 33.9019 44.7328 34.3092 43.709 35.0292C43.681 35.0469 43.6511 35.0612 43.6198 35.0719C41.0654 35.9705 40.8968 38.9495 41.2732 41.4749C41.7425 40.0404 42.5433 38.7685 43.415 38.1925C43.4886 38.144 43.5753 38.1194 43.6634 38.1221C43.7515 38.1249 43.8366 38.1549 43.907 38.2079C46.3757 40.0669 48.7833 40.4023 51.267 39.234C51.3634 39.1885 51.4735 39.1808 51.5753 39.2124C51.6772 39.244 51.7636 39.3126 51.8174 39.4047C52.1669 40.0211 52.4446 40.6754 52.6451 41.355C52.8379 40.318 52.8442 39.2549 52.6639 38.2156C52.5937 38.0156 52.5755 37.8011 52.6109 37.5922C52.6463 37.3832 52.7341 37.1867 52.8661 37.0209C53.0695 36.7178 53.1997 36.3717 53.2467 36.0097C53.2633 35.8911 53.2335 35.8565 53.2224 35.8433C53.0171 35.7082 52.7706 35.65 52.5265 35.6791C51.7298 35.668 50.9562 35.4102 50.3121 34.9413C49.4156 34.2557 48.3229 33.8755 47.1944 33.8568ZM55.264 59.7337H53.5799C53.4668 59.7337 53.3582 59.6887 53.2782 59.6087C53.1982 59.5287 53.1533 59.4202 53.1533 59.307C53.1533 59.1938 53.1982 59.0853 53.2782 59.0053C53.3582 58.9253 53.4668 58.8803 53.5799 58.8803H55.264C55.6487 58.8803 56.0177 58.7275 56.2898 58.4554C56.5618 58.1834 56.7146 57.8144 56.7146 57.4297V55.4371C56.7134 54.2986 56.2606 53.207 55.4555 52.4019C54.6504 51.5968 53.5588 51.144 52.4202 51.1427H50.9696C49.761 51.9432 48.3435 52.37 46.8938 52.37C45.4442 52.37 44.0267 51.9432 42.8181 51.1427H41.3521C40.2136 51.1441 39.122 51.597 38.317 52.402C37.5119 53.2071 37.059 54.2986 37.0577 55.4371V57.4297C37.0577 57.8144 37.2105 58.1834 37.4826 58.4554C37.7546 58.7275 38.1236 58.8803 38.5084 58.8803H40.192C40.3051 58.8803 40.4137 58.9253 40.4937 59.0053C40.5737 59.0853 40.6186 59.1938 40.6186 59.307C40.6186 59.4202 40.5737 59.5287 40.4937 59.6087C40.4137 59.6887 40.3051 59.7337 40.192 59.7337H38.5088C37.898 59.7329 37.3124 59.4899 36.8805 59.058C36.4486 58.6261 36.2056 58.0405 36.2048 57.4297V55.4371C36.2064 54.0723 36.7492 52.7639 37.7143 51.7989C38.6793 50.8338 39.9877 50.291 41.3525 50.2894H42.9474C43.0326 50.2895 43.1158 50.315 43.1863 50.3628C44.2756 51.1148 45.5683 51.5167 46.8919 51.5148C48.2174 51.5125 49.5113 51.1098 50.6039 50.3594C50.6741 50.3124 50.7567 50.2873 50.8412 50.2873H52.4198C53.7846 50.2887 55.0931 50.8316 56.0582 51.7966C57.0233 52.7617 57.5661 54.0702 57.5676 55.435V57.4275C57.5673 58.0386 57.3246 58.6247 56.8928 59.0571C56.4609 59.4894 55.8751 59.7328 55.264 59.7337Z" fill="#34623F"></path>
  <path d="M46.9108 50.2321C44.0094 50.2321 41.519 47.5318 40.8564 43.6653C40.8468 43.6101 40.8483 43.5535 40.8606 43.4988C40.873 43.4441 40.896 43.3924 40.9283 43.3466C40.9606 43.3008 41.0017 43.2618 41.0491 43.2319C41.0965 43.2019 41.1493 43.1816 41.2045 43.1721C41.2598 43.1626 41.3164 43.164 41.371 43.1764C41.4257 43.1887 41.4774 43.2117 41.5232 43.244C41.569 43.2763 41.608 43.3174 41.638 43.3648C41.6679 43.4122 41.6882 43.465 41.6978 43.5202C42.2883 46.9694 44.4318 49.378 46.9108 49.378C49.3897 49.378 51.5371 46.9703 52.1276 43.5202C52.1371 43.465 52.1573 43.4122 52.1872 43.3647C52.2171 43.3173 52.2561 43.2763 52.3018 43.2439C52.3476 43.2115 52.3993 43.1885 52.4539 43.1761C52.5086 43.1637 52.5652 43.1622 52.6204 43.1717C52.6757 43.1811 52.7285 43.2014 52.7759 43.2313C52.8233 43.2612 52.8644 43.3001 52.8968 43.3459C52.9291 43.3916 52.9522 43.4433 52.9646 43.498C52.977 43.5526 52.9785 43.6092 52.969 43.6645C52.3064 47.5309 49.8155 50.2321 46.9108 50.2321ZM53.5834 59.7336H40.1963C40.0832 59.7336 39.9746 59.6886 39.8946 59.6086C39.8146 59.5286 39.7696 59.4201 39.7696 59.3069L39.7662 55.6427C39.7662 55.5295 39.8112 55.421 39.8912 55.341C39.9712 55.261 40.0797 55.216 40.1929 55.216C40.3061 55.216 40.4146 55.261 40.4946 55.341C40.5746 55.421 40.6196 55.5295 40.6196 55.6427L40.6226 58.8803H53.1563L53.1533 55.6431C53.1533 55.53 53.1983 55.4214 53.2783 55.3414C53.3583 55.2614 53.4668 55.2165 53.58 55.2165C53.6932 55.2165 53.8017 55.2614 53.8817 55.3414C53.9617 55.4214 54.0067 55.53 54.0067 55.6431L54.0101 59.3069C54.0101 59.4201 53.9651 59.5286 53.8851 59.6086C53.8051 59.6886 53.6966 59.7336 53.5834 59.7336Z" fill="#34623F"></path>
  <path d="M42.9457 51.1412C42.8638 51.1413 42.7835 51.1178 42.7146 51.0735C42.6457 51.0292 42.5909 50.966 42.557 50.8915C42.523 50.8169 42.5112 50.7341 42.523 50.6531C42.5348 50.572 42.5697 50.496 42.6236 50.4342L44.0934 48.7438C44.1677 48.6584 44.2729 48.6059 44.3858 48.5981C44.4988 48.5902 44.6102 48.6275 44.6957 48.7018C44.7811 48.7761 44.8335 48.8812 44.8414 48.9942C44.8493 49.1071 44.812 49.2186 44.7377 49.304L43.2678 50.9945C43.2278 51.0406 43.1783 51.0775 43.1227 51.1028C43.0671 51.1282 43.0068 51.1412 42.9457 51.1412ZM50.8757 51.1412C50.8147 51.1412 50.7543 51.1282 50.6987 51.1028C50.6431 51.0775 50.5937 51.0406 50.5536 50.9945L49.0837 49.304C49.0094 49.2186 48.9721 49.1071 48.98 48.9942C48.9879 48.8812 49.0403 48.7761 49.1257 48.7018C49.2112 48.6275 49.3226 48.5902 49.4356 48.5981C49.5485 48.6059 49.6537 48.6584 49.728 48.7438L51.2 50.4342C51.2538 50.496 51.2887 50.572 51.3005 50.6531C51.3124 50.7341 51.3006 50.8169 51.2666 50.8915C51.2326 50.966 51.1779 51.0292 51.109 51.0735C51.04 51.1178 50.9598 51.1413 50.8779 51.1412H50.8757ZM27.3348 45.6829C27.2448 45.6829 27.1571 45.6545 27.0842 45.6017C27.0114 45.5489 26.9571 45.4744 26.9291 45.3889C26.9011 45.3033 26.9009 45.2111 26.9285 45.1255C26.9561 45.0398 27.01 44.965 27.0827 44.9119L31.2465 41.8681C31.3379 41.8012 31.4521 41.7735 31.5639 41.7908C31.6758 41.8082 31.7762 41.8693 31.843 41.9606C31.9098 42.052 31.9376 42.1662 31.9202 42.2781C31.9029 42.3899 31.8418 42.4903 31.7504 42.5571L27.5861 45.6005C27.5134 45.6542 27.4253 45.6831 27.3348 45.6829ZM33.0415 39.599C32.9283 39.599 32.8198 39.5541 32.7398 39.4741C32.6598 39.3941 32.6148 39.2855 32.6148 39.1724V35.3422C32.6148 35.229 32.6598 35.1205 32.7398 35.0405C32.8198 34.9605 32.9283 34.9155 33.0415 34.9155C33.1546 34.9155 33.2632 34.9605 33.3432 35.0405C33.4232 35.1205 33.4682 35.229 33.4682 35.3422V39.1724C33.4682 39.2855 33.4232 39.3941 33.3432 39.4741C33.2632 39.5541 33.1546 39.599 33.0415 39.599ZM38.7516 45.6829C38.661 45.683 38.5728 45.6542 38.4998 45.6005L34.3364 42.5571C34.245 42.4904 34.1839 42.39 34.1665 42.2782C34.1491 42.1664 34.1769 42.0522 34.2436 41.9609C34.3104 41.8695 34.4107 41.8084 34.5225 41.791C34.6344 41.7736 34.7485 41.8013 34.8399 41.8681L39.0037 44.9119C39.0764 44.965 39.1303 45.0398 39.1579 45.1255C39.1855 45.2111 39.1853 45.3033 39.1573 45.3889C39.1293 45.4744 39.075 45.5489 39.0021 45.6017C38.9293 45.6545 38.8416 45.6829 38.7516 45.6829Z" fill="#34623F"></path>
  <path d="M33.0415 39.599C32.9284 39.599 32.8199 39.5541 32.7398 39.4741C32.6598 39.3941 32.6149 39.2855 32.6149 39.1724V35.3422C32.6149 35.229 32.6598 35.1205 32.7398 35.0405C32.8199 34.9605 32.9284 34.9155 33.0415 34.9155C33.1547 34.9155 33.2632 34.9605 33.3432 35.0405C33.4232 35.1205 33.4682 35.229 33.4682 35.3422V39.1724C33.4682 39.2855 33.4232 39.3941 33.3432 39.4741C33.2632 39.5541 33.1547 39.599 33.0415 39.599Z" fill="#34623F"></path>
  <path d="M33.0436 43.427C32.5806 43.4271 32.1279 43.2898 31.7429 43.0326C31.3578 42.7753 31.0578 42.4097 30.8806 41.9818C30.7034 41.554 30.6572 41.0833 30.7476 40.6291C30.838 40.175 31.0611 39.7579 31.3887 39.4306C31.7162 39.1033 32.1335 38.8805 32.5877 38.7904C33.0419 38.7002 33.5126 38.7469 33.9403 38.9244C34.368 39.1018 34.7335 39.4022 34.9904 39.7874C35.2474 40.1726 35.3843 40.6254 35.3839 41.0884C35.3827 41.7086 35.1356 42.3029 34.697 42.7413C34.2583 43.1796 33.6638 43.4262 33.0436 43.427ZM33.0436 39.5994C32.7495 39.5993 32.462 39.6864 32.2174 39.8497C31.9728 40.013 31.782 40.2452 31.6694 40.5168C31.5567 40.7885 31.527 41.0875 31.5843 41.376C31.6415 41.6645 31.7829 41.9296 31.9907 42.1377C32.1986 42.3458 32.4634 42.4876 32.7518 42.5453C33.0403 42.6029 33.3393 42.5737 33.6111 42.4614C33.8829 42.3491 34.1154 42.1587 34.279 41.9143C34.4427 41.67 34.5302 41.3826 34.5306 41.0884C34.5306 40.6939 34.374 40.3154 34.0952 40.0363C33.8164 39.7571 33.4382 39.5999 33.0436 39.5994Z" fill="#34623F"></path>
</svg>
