<svg xmlns="http://www.w3.org/2000/svg" width="64" height="64" fill="none"><path d="M22.776 44.02a.427.427 0 0 1-.427-.445 7.63 7.63 0 0 0-.861-3.404c-2.547 1.06-5.104.694-7.605-1.088-.875.762-1.815 2.59-1.953 4.541a.426.426 0 0 1-.838.078c-1.316-5.03-.454-8.37 2.424-9.417 2.66-1.695 5.19-1.706 7.52-.033a3.005 3.005 0 0 0 1.727.577 1.718 1.718 0 0 1 1.333.462 1.025 1.025 0 0 1 .224.84 3.185 3.185 0 0 1-.497 1.337c-.163.267-.18.31-.125.47.262.754.314 3.335-.518 5.793a.427.427 0 0 1-.404.289Zm-5.354-10.164a6.463 6.463 0 0 0-3.486 1.173.433.433 0 0 1-.089.043c-2.555.899-2.723 3.878-2.347 6.403.47-1.434 1.27-2.706 2.142-3.282a.428.428 0 0 1 .492.015c2.469 1.86 4.876 2.194 7.36 1.026a.427.427 0 0 1 .55.17c.35.617.628 1.272.828 1.951.193-1.037.2-2.1.02-3.14a1.252 1.252 0 0 1 .201-1.194c.204-.303.334-.65.38-1.011.018-.119-.012-.154-.024-.166a1.039 1.039 0 0 0-.695-.165 3.851 3.851 0 0 1-2.215-.738 5.276 5.276 0 0 0-3.117-1.085Zm8.07 25.877h-1.684a.427.427 0 1 1 0-.853h1.684a1.45 1.45 0 0 0 1.45-1.45v-1.993a4.3 4.3 0 0 0-4.294-4.294h-1.45a7.381 7.381 0 0 1-8.15 0H11.58a4.299 4.299 0 0 0-4.294 4.294v1.992a1.45 1.45 0 0 0 1.45 1.451h1.685a.426.426 0 1 1 0 .853H8.736a2.307 2.307 0 0 1-2.304-2.304v-1.992a5.153 5.153 0 0 1 5.148-5.148h1.594c.085 0 .169.026.24.073a6.505 6.505 0 0 0 3.705 1.152 6.574 6.574 0 0 0 3.712-1.155.428.428 0 0 1 .238-.072h1.579a5.154 5.154 0 0 1 5.147 5.148v1.992a2.307 2.307 0 0 1-2.304 2.306Z" fill="#34623F"/><path d="M17.138 50.232c-2.901 0-5.392-2.7-6.055-6.567a.427.427 0 0 1 .842-.145c.59 3.45 2.734 5.858 5.213 5.858s4.626-2.408 5.217-5.858a.427.427 0 1 1 .84.144c-.661 3.867-3.152 6.568-6.057 6.568Zm6.673 9.501H10.424a.427.427 0 0 1-.427-.426l-.004-3.664a.427.427 0 0 1 .854 0l.003 3.237h12.534l-.003-3.237a.427.427 0 0 1 .426-.427.419.419 0 0 1 .427.427l.003 3.664a.427.427 0 0 1-.426.426Z" fill="#34623F"/><path d="M13.173 51.141a.426.426 0 0 1-.389-.25.427.427 0 0 1 .067-.457l1.47-1.69a.427.427 0 1 1 .643.56l-1.469 1.69a.427.427 0 0 1-.322.147Zm7.93 0a.426.426 0 0 1-.322-.146l-1.47-1.69a.426.426 0 1 1 .644-.561l1.47 1.69a.427.427 0 0 1-.322.707Zm17.6-35.86a.426.426 0 0 1-.426-.445 7.637 7.637 0 0 0-.858-3.404c-2.548 1.06-5.103.694-7.606-1.088-.875.761-1.814 2.59-1.953 4.54a.426.426 0 0 1-.838.079c-1.317-5.03-.456-8.371 2.423-9.416 2.66-1.695 5.19-1.707 7.52-.034a3.005 3.005 0 0 0 1.726.577 1.716 1.716 0 0 1 1.334.462 1.024 1.024 0 0 1 .222.841 3.186 3.186 0 0 1-.497 1.337c-.163.267-.18.31-.125.47.263.754.315 3.334-.517 5.792a.427.427 0 0 1-.404.29ZM33.35 5.121a6.466 6.466 0 0 0-3.483 1.17.412.412 0 0 1-.09.042c-2.554.898-2.723 3.878-2.346 6.403.47-1.434 1.27-2.707 2.142-3.282a.426.426 0 0 1 .492.015c2.468 1.86 4.876 2.195 7.36 1.026a.427.427 0 0 1 .548.172c.35.616.627 1.27.828 1.95.193-1.037.199-2.1.018-3.14a1.252 1.252 0 0 1 .203-1.194 2.36 2.36 0 0 0 .38-1.01c.017-.12-.013-.154-.024-.168a1.041 1.041 0 0 0-.696-.164 3.852 3.852 0 0 1-2.214-.737A5.276 5.276 0 0 0 33.35 5.12Zm8.07 25.874h-1.685a.427.427 0 0 1 0-.853h1.684a1.45 1.45 0 0 0 1.451-1.451v-1.992a4.299 4.299 0 0 0-4.294-4.295h-1.45a7.382 7.382 0 0 1-8.15 0h-1.468a4.299 4.299 0 0 0-4.295 4.294v1.993a1.45 1.45 0 0 0 1.45 1.45h1.685a.427.427 0 1 1 0 .854h-1.684a2.306 2.306 0 0 1-2.304-2.304v-1.992a5.153 5.153 0 0 1 5.148-5.148h1.595c.085 0 .168.025.239.073a6.503 6.503 0 0 0 3.705 1.154 6.578 6.578 0 0 0 3.712-1.155.423.423 0 0 1 .237-.072h1.579a5.154 5.154 0 0 1 5.148 5.148v1.992a2.306 2.306 0 0 1-2.303 2.304Z" fill="#34623F"/><path d="M33.067 21.494c-2.902 0-5.392-2.7-6.055-6.567a.427.427 0 0 1 .842-.144c.59 3.449 2.734 5.858 5.213 5.858s4.626-2.41 5.217-5.858a.425.425 0 0 1 .492-.35.426.426 0 0 1 .349.494c-.663 3.867-3.154 6.567-6.058 6.567Zm6.672 9.5H26.352a.427.427 0 0 1-.427-.426l-.003-3.664a.427.427 0 1 1 .853 0l.003 3.238h12.534l-.003-3.237a.427.427 0 0 1 .853 0l.004 3.664a.427.427 0 0 1-.427.427v-.001Z" fill="#34623F"/><path d="M29.101 22.403a.426.426 0 0 1-.322-.707l1.472-1.69a.426.426 0 1 1 .642.56l-1.47 1.69a.427.427 0 0 1-.322.147Zm7.93 0a.427.427 0 0 1-.322-.146l-1.47-1.691a.429.429 0 0 1 .043-.602.426.426 0 0 1 .602.042l1.469 1.69a.427.427 0 0 1-.322.707ZM52.548 44.02a.427.427 0 0 1-.426-.445 7.635 7.635 0 0 0-.861-3.404c-2.547 1.06-5.103.694-7.606-1.089-.874.762-1.814 2.59-1.952 4.542a.427.427 0 0 1-.839.077c-1.315-5.03-.454-8.37 2.425-9.416 2.66-1.695 5.191-1.707 7.52-.034a3.006 3.006 0 0 0 1.726.578 1.716 1.716 0 0 1 1.334.46 1.025 1.025 0 0 1 .223.843 3.185 3.185 0 0 1-.497 1.336c-.163.267-.18.31-.125.47.263.754.314 3.335-.518 5.793a.426.426 0 0 1-.404.289Zm-5.354-10.163a6.464 6.464 0 0 0-3.485 1.172.423.423 0 0 1-.09.043c-2.554.898-2.722 3.877-2.346 6.403.47-1.435 1.27-2.706 2.142-3.282a.428.428 0 0 1 .492.015c2.469 1.859 4.876 2.194 7.36 1.026a.426.426 0 0 1 .55.17c.35.617.628 1.271.828 1.951.193-1.037.2-2.1.019-3.14a1.251 1.251 0 0 1 .202-1.194 2.36 2.36 0 0 0 .38-1.011c.017-.119-.013-.154-.024-.167a1.042 1.042 0 0 0-.696-.164 3.854 3.854 0 0 1-2.214-.738 5.276 5.276 0 0 0-3.118-1.084Zm8.07 25.877H53.58a.427.427 0 0 1 0-.854h1.684a1.45 1.45 0 0 0 1.45-1.45v-1.993a4.299 4.299 0 0 0-4.294-4.294h-1.45a7.38 7.38 0 0 1-8.152 0h-1.466a4.3 4.3 0 0 0-4.294 4.294v1.993a1.45 1.45 0 0 0 1.45 1.45h1.684a.427.427 0 0 1 0 .854h-1.683a2.307 2.307 0 0 1-2.304-2.304v-1.993a5.153 5.153 0 0 1 5.148-5.148h1.594c.086 0 .169.026.24.074a6.506 6.506 0 0 0 3.705 1.152 6.577 6.577 0 0 0 3.712-1.156.427.427 0 0 1 .237-.072h1.579a5.153 5.153 0 0 1 5.148 5.148v1.992a2.308 2.308 0 0 1-2.304 2.307Z" fill="#34623F"/><path d="M46.91 50.232c-2.9 0-5.391-2.7-6.054-6.567a.426.426 0 1 1 .842-.145c.59 3.45 2.734 5.858 5.213 5.858s4.626-2.408 5.217-5.858a.428.428 0 0 1 .769-.174.427.427 0 0 1 .072.319c-.663 3.866-3.154 6.567-6.058 6.567Zm6.673 9.502H40.196a.427.427 0 0 1-.426-.427l-.004-3.664a.427.427 0 0 1 .854 0l.003 3.237h12.533l-.003-3.237a.427.427 0 0 1 .854 0l.003 3.664a.427.427 0 0 1-.427.427Z" fill="#34623F"/><path d="M42.946 51.141a.426.426 0 0 1-.322-.707l1.47-1.69a.427.427 0 0 1 .644.56l-1.47 1.69a.425.425 0 0 1-.322.147Zm7.93 0a.426.426 0 0 1-.322-.146l-1.47-1.691a.427.427 0 1 1 .644-.56l1.472 1.69a.427.427 0 0 1-.322.707h-.002Zm-23.541-5.458a.427.427 0 0 1-.252-.771l4.164-3.044a.427.427 0 1 1 .503.69L27.586 45.6a.421.421 0 0 1-.251.083Zm5.706-6.084a.427.427 0 0 1-.426-.427v-3.83a.427.427 0 0 1 .853 0v3.83a.427.427 0 0 1-.427.427Zm5.71 6.084a.424.424 0 0 1-.251-.083l-4.164-3.043a.426.426 0 1 1 .504-.689l4.164 3.044a.426.426 0 0 1-.252.77Z" fill="#34623F"/><path d="M33.041 39.599a.427.427 0 0 1-.426-.427v-3.83a.427.427 0 1 1 .853 0v3.83a.427.427 0 0 1-.427.427Z" fill="#34623F"/><path d="M33.044 43.427a2.34 2.34 0 1 1-.001-4.682 2.34 2.34 0 0 1 0 4.682Zm0-3.828a1.487 1.487 0 1 0-.001 2.974 1.487 1.487 0 0 0 0-2.974Z" fill="#34623F"/></svg>