<svg width="148" height="37" viewBox="0 0 148 37" fill="none" xmlns="http://www.w3.org/2000/svg">
<rect x="0.5" y="0.849609" width="35" height="35" rx="7.5" stroke="#F7F7F7"/>
<path d="M19.4638 27.3496V19.139H22.3585L22.7919 15.9391H19.4638V13.8961C19.4638 12.9697 19.7339 12.3384 21.1294 12.3384L22.9091 12.3376V9.47568C22.6013 9.43676 21.5447 9.34961 20.3158 9.34961C17.7497 9.34961 15.993 10.8408 15.993 13.5793V15.9391H13.0909V19.139H15.993V27.3495H19.4638V27.3496Z" fill="#F7F7F7"/>
<rect x="52.5" y="0.849609" width="35" height="35" rx="7.5" stroke="#F7F7F7"/>
<path fill-rule="evenodd" clip-rule="evenodd" d="M61 18.3496C61 14.7545 61 12.9569 61.8567 11.6622C62.2392 11.084 62.7344 10.5889 63.3126 10.2063C64.6073 9.34961 66.4049 9.34961 70 9.34961C73.5951 9.34961 75.3927 9.34961 76.6874 10.2063C77.2656 10.5889 77.7608 11.084 78.1433 11.6622C79 12.9569 79 14.7545 79 18.3496C79 21.9447 79 23.7423 78.1433 25.0371C77.7608 25.6152 77.2656 26.1104 76.6874 26.4929C75.3927 27.3496 73.5951 27.3496 70 27.3496C66.4049 27.3496 64.6073 27.3496 63.3126 26.4929C62.7344 26.1104 62.2392 25.6152 61.8567 25.0371C61 23.7423 61 21.9447 61 18.3496ZM74.6593 18.3498C74.6593 20.9232 72.5732 23.0092 69.9998 23.0092C67.4265 23.0092 65.3404 20.9232 65.3404 18.3498C65.3404 15.7765 67.4265 13.6904 69.9998 13.6904C72.5732 13.6904 74.6593 15.7765 74.6593 18.3498ZM69.9998 21.4328C71.7025 21.4328 73.0828 20.0525 73.0828 18.3498C73.0828 16.6471 71.7025 15.2668 69.9998 15.2668C68.2971 15.2668 66.9168 16.6471 66.9168 18.3498C66.9168 20.0525 68.2971 21.4328 69.9998 21.4328ZM74.8433 14.5512C75.4479 14.5512 75.9381 14.061 75.9381 13.4563C75.9381 12.8517 75.4479 12.3615 74.8433 12.3615C74.2386 12.3615 73.7485 12.8517 73.7485 13.4563C73.7485 14.061 74.2386 14.5512 74.8433 14.5512Z" fill="#F7F7F7"/>
<rect x="104.5" y="0.849609" width="35" height="35" rx="7.5" stroke="#F7F7F7"/>
<path d="M113 11.7697C113 11.1924 113.203 10.7163 113.608 10.3411C114.014 9.9659 114.541 9.77832 115.189 9.77832C115.826 9.77832 116.342 9.96301 116.736 10.3324C117.141 10.7134 117.344 11.2098 117.344 11.8216C117.344 12.3757 117.147 12.8375 116.753 13.2069C116.348 13.5878 115.815 13.7783 115.154 13.7783H115.137C114.5 13.7783 113.985 13.5878 113.591 13.2069C113.197 12.8259 113 12.3469 113 11.7697ZM113.226 26.9212V15.3541H117.083V26.9212H113.226ZM119.22 26.9212H123.077V20.4623C123.077 20.0582 123.124 19.7466 123.216 19.5272C123.378 19.1347 123.625 18.8028 123.955 18.5316C124.285 18.2603 124.699 18.1246 125.197 18.1246C126.494 18.1246 127.143 18.9962 127.143 20.7394V26.9212H131V20.2891C131 18.5806 130.595 17.2848 129.784 16.4017C128.973 15.5186 127.902 15.077 126.57 15.077C125.075 15.077 123.911 15.7177 123.077 16.9991V17.0337H123.06L123.077 16.9991V15.3541H119.22C119.243 15.7235 119.255 16.8721 119.255 18.8C119.255 20.7278 119.243 23.4349 119.22 26.9212Z" fill="#F7F7F7"/>
</svg>
