<svg xmlns="http://www.w3.org/2000/svg" width="36" height="37" viewBox="0 0 36 37" fill="none">
  <rect x="0.5" y="0.849609" width="35" height="35" rx="7.5" stroke="#F7F7F7"/>
  <path d="M9.00002 11.7697C9.00002 11.1924 9.20273 10.7163 9.60813 10.3411C10.0135 9.9659 10.5406 9.77832 11.1892 9.77832C11.8263 9.77832 12.3417 9.96301 12.7355 10.3324C13.1409 10.7134 13.3436 11.2098 13.3436 11.8216C13.3436 12.3757 13.1467 12.8375 12.7529 13.2069C12.3475 13.5878 11.8147 13.7783 11.1545 13.7783H11.1371C10.5 13.7783 9.98458 13.5878 9.59075 13.2069C9.19692 12.8259 9.00002 12.3469 9.00002 11.7697ZM9.22589 26.9212V15.3541H13.083V26.9212H9.22589ZM15.2201 26.9212H19.0772V20.4623C19.0772 20.0582 19.1236 19.7466 19.2162 19.5272C19.3784 19.1347 19.6245 18.8028 19.9547 18.5316C20.2848 18.2603 20.6989 18.1246 21.1969 18.1246C22.4942 18.1246 23.1429 18.9962 23.1429 20.7394V26.9212H27V20.2891C27 18.5806 26.5946 17.2848 25.7838 16.4017C24.973 15.5186 23.9016 15.077 22.5695 15.077C21.0753 15.077 19.9112 15.7177 19.0772 16.9991V17.0337H19.0599L19.0772 16.9991V15.3541H15.2201C15.2433 15.7235 15.2548 16.8721 15.2548 18.8C15.2548 20.7278 15.2433 23.4349 15.2201 26.9212Z" fill="#F7F7F7"/>
</svg>
