<svg xmlns="http://www.w3.org/2000/svg" width="64" height="64" viewBox="0 0 64 64" fill="none">
  <path d="M26.3137 51.1676C26.2006 51.1676 26.0921 51.1226 26.0121 51.0426L13.9545 38.985C13.8855 38.9161 13.8423 38.8256 13.832 38.7286C13.8217 38.6316 13.8449 38.5341 13.8977 38.4521C17.4079 33.0143 22.2045 27.2001 27.7665 21.638C46.3692 3.03537 58.7511 5.28903 59.2695 5.39441C59.3516 5.41109 59.427 5.45159 59.4863 5.51085C59.5455 5.57011 59.586 5.64551 59.6027 5.72764C59.7081 6.24561 61.963 18.6271 43.3591 37.2306C37.797 42.793 31.9828 47.5888 26.545 51.0972C26.4764 51.1427 26.396 51.1672 26.3137 51.1676ZM14.8023 38.6236L26.3713 50.1927C32.2775 46.2359 37.767 41.6899 42.7553 36.6247C59.438 19.942 59.0173 8.16903 58.8057 6.18844C56.8272 5.97511 45.0542 5.55399 28.3694 22.2388C23.3045 27.2283 18.7588 32.7187 14.8023 38.6258V38.6236Z" fill="#34623F"/>
  <path d="M23.0468 52.0724C22.9336 52.0724 22.8251 52.0275 22.7451 51.9474L13.0496 42.2519C12.9696 42.1718 12.9246 42.0633 12.9246 41.9502C12.9246 41.8371 12.9696 41.7286 13.0496 41.6486L15.1355 39.5626C15.2171 39.4855 15.325 39.4425 15.4372 39.4425C15.5494 39.4425 15.6573 39.4855 15.7388 39.5626L25.4344 49.2582C25.5144 49.3382 25.5593 49.4467 25.5593 49.5598C25.5593 49.6729 25.5144 49.7814 25.4344 49.8615L23.3484 51.9474C23.2684 52.0275 23.1599 52.0724 23.0468 52.0724ZM13.9545 41.9502L23.0468 51.0425L24.5295 49.5598L15.4372 40.4675L13.9545 41.9502ZM17.201 34.8744C17.0964 34.8743 16.9954 34.8357 16.9173 34.766C14.8074 32.8783 12.1171 31.7663 9.2902 31.6134C9.20534 31.6149 9.12201 31.5907 9.05113 31.544C8.98024 31.4974 8.92512 31.4304 8.89297 31.3518C8.86019 31.2737 8.85141 31.1876 8.86775 31.1044C8.88409 31.0213 8.9248 30.9449 8.9847 30.885L12.0908 27.7789C12.1225 27.747 12.1591 27.7203 12.1992 27.7C15.4991 26.0262 19.5635 26.609 22.7379 27.304C22.8484 27.3282 22.9448 27.3954 23.0059 27.4907C23.0669 27.586 23.0876 27.7016 23.0634 27.8122C23.0392 27.9227 22.9721 28.0191 22.8768 28.0802C22.7815 28.1412 22.6658 28.1619 22.5553 28.1377C19.5409 27.4772 15.697 26.9166 12.6468 28.4308L10.2485 30.8279C12.939 31.1719 15.4622 32.323 17.4856 34.1294C17.5501 34.187 17.5956 34.2628 17.6161 34.3469C17.6365 34.4309 17.6309 34.5192 17.6 34.6C17.5692 34.6807 17.5145 34.7503 17.4432 34.7993C17.372 34.8483 17.2875 34.8745 17.201 34.8744Z" fill="#34623F"/>
  <path d="M9.28592 31.6133C9.17277 31.6132 9.06427 31.5683 8.98427 31.4883L6.37904 28.883C6.33937 28.8434 6.3079 28.7964 6.28643 28.7446C6.26496 28.6928 6.25391 28.6372 6.25391 28.5812C6.25391 28.5251 6.26496 28.4696 6.28643 28.4178C6.3079 28.366 6.33937 28.3189 6.37904 28.2793L12.5627 22.0956C13.3435 21.3148 16.0328 20.8967 16.5636 20.8207C16.6292 20.8113 16.6961 20.8173 16.759 20.8383C16.8219 20.8592 16.8791 20.8945 16.9259 20.9414C16.9728 20.9882 17.0081 21.0454 17.0291 21.1083C17.05 21.1712 17.056 21.2381 17.0466 21.3037C16.9706 21.8345 16.5525 24.5238 15.7717 25.3042L9.58758 31.4883C9.50758 31.5683 9.39907 31.6132 9.28592 31.6133ZM7.284 28.5814L9.28592 30.5833L15.1684 24.7008C15.5485 24.3207 15.9086 22.8747 16.107 21.7568C14.9913 21.9565 13.547 22.3166 13.1652 22.6955L7.284 28.5814ZM33.8107 56.1376C33.7542 56.1377 33.6981 56.1264 33.646 56.1044C33.568 56.0717 33.5014 56.0166 33.4548 55.946C33.4081 55.8754 33.3835 55.7926 33.3841 55.708C33.2275 52.8818 32.116 50.1925 30.2314 48.0805C30.1924 48.039 30.162 47.9901 30.1422 47.9367C30.1223 47.8833 30.1134 47.8265 30.1159 47.7696C30.1183 47.7127 30.1322 47.6568 30.1565 47.6054C30.1809 47.5539 30.2154 47.5078 30.2579 47.4699C30.3003 47.4319 30.35 47.4029 30.4039 47.3844C30.4578 47.3659 30.5148 47.3585 30.5716 47.3624C30.6285 47.3663 30.6839 47.3816 30.7348 47.4073C30.7856 47.4331 30.8307 47.4687 30.8676 47.5122C32.674 49.5355 33.8252 52.0585 34.1696 54.7488L36.5653 52.3523C38.0795 49.302 37.5189 45.4582 36.8584 42.4438C36.8464 42.389 36.8453 42.3325 36.8552 42.2773C36.8651 42.2221 36.8857 42.1695 36.9159 42.1223C36.9462 42.0751 36.9854 42.0343 37.0314 42.0023C37.0774 41.9703 37.1292 41.9476 37.184 41.9356C37.2387 41.9236 37.2953 41.9225 37.3504 41.9324C37.4056 41.9423 37.4583 41.9629 37.5055 41.9932C37.5526 42.0234 37.5934 42.0626 37.6254 42.1086C37.6575 42.1546 37.6801 42.2064 37.6921 42.2612C38.3872 45.4339 38.97 49.4983 37.2966 52.7998C37.276 52.8399 37.2494 52.8766 37.2177 52.9086L34.1115 56.0143C34.0315 56.0935 33.9233 56.1379 33.8107 56.1376Z" fill="#34623F"/>
  <path d="M36.4164 58.7436C36.3032 58.7436 36.1947 58.6986 36.1147 58.6186L33.5091 56.0129C33.4291 55.9329 33.3842 55.8244 33.3842 55.7113C33.3842 55.5981 33.4291 55.4896 33.5091 55.4096L39.6932 49.2255C40.4736 48.4447 43.1628 48.0266 43.6936 47.9506C43.7592 47.9412 43.8261 47.9472 43.889 47.9681C43.9519 47.9891 44.0091 48.0244 44.056 48.0713C44.1028 48.1181 44.1381 48.1753 44.1591 48.2382C44.18 48.3011 44.186 48.368 44.1766 48.4336C44.1006 48.9648 43.6825 51.6537 42.9017 52.4345L36.718 58.6186C36.638 58.6986 36.5295 58.7436 36.4164 58.7436ZM34.414 55.7113L36.4164 57.7132L42.2984 51.8307C42.6786 51.451 43.0391 50.005 43.2371 48.8889C42.1213 49.0886 40.6771 49.4487 40.2931 49.8275L34.414 55.7113ZM57.1507 17.1948C57.12 17.1947 57.0893 17.1913 57.0594 17.1846C54.7956 16.6885 52.7215 15.5539 51.0829 13.9152C49.4442 12.2765 48.3096 10.2024 47.8135 7.93868C47.7893 7.82813 47.8101 7.7125 47.8712 7.61724C47.9323 7.52199 48.0287 7.4549 48.1393 7.43074C48.2498 7.40658 48.3654 7.42733 48.4607 7.48842C48.556 7.54951 48.623 7.64594 48.6472 7.7565C49.1086 9.86049 50.1634 11.7882 51.6866 13.3112C53.2097 14.8342 55.1375 15.8888 57.2416 16.35C57.3448 16.372 57.4362 16.4315 57.4981 16.517C57.5601 16.6026 57.5881 16.708 57.5768 16.813C57.5655 16.9179 57.5157 17.015 57.437 17.0853C57.3582 17.1557 57.2563 17.1944 57.1507 17.1939V17.1948ZM45.5193 23.3277C44.8861 23.3279 44.2625 23.172 43.704 22.8736C43.1454 22.5752 42.6691 22.1437 42.3172 21.6172C41.9653 21.0908 41.7487 20.4856 41.6866 19.8554C41.6245 19.2252 41.7188 18.5894 41.9612 18.0044C42.2035 17.4194 42.5865 16.9032 43.0761 16.5015C43.5656 16.0999 44.1467 15.8252 44.7679 15.7018C45.389 15.5785 46.0309 15.6102 46.6368 15.7943C47.2427 15.9783 47.7939 16.309 48.2414 16.757C48.7794 17.2955 49.1456 17.9813 49.2939 18.7279C49.4422 19.4744 49.3658 20.2482 49.0745 20.9514C48.7832 21.6545 48.29 22.2556 47.6572 22.6785C47.0244 23.1015 46.2804 23.3274 45.5193 23.3277ZM45.5193 16.4814C44.8261 16.4814 44.1543 16.7218 43.6184 17.1616C43.0825 17.6014 42.7157 18.2134 42.5804 18.8933C42.4452 19.5732 42.5498 20.279 42.8766 20.8904C43.2034 21.5018 43.7321 21.981 44.3726 22.2463C45.0131 22.5116 45.7257 22.5466 46.3891 22.3453C47.0525 22.1441 47.6256 21.7191 48.0108 21.1426C48.3959 20.5662 48.5693 19.8741 48.5014 19.1842C48.4334 18.4943 48.1283 17.8493 47.6381 17.3591C47.3605 17.08 47.0303 16.8587 46.6666 16.708C46.3029 16.5574 45.913 16.4804 45.5193 16.4814ZM22.8718 36.5582C22.7875 36.5582 22.705 36.5332 22.6349 36.4863C22.5647 36.4394 22.51 36.3728 22.4777 36.2948C22.4455 36.2169 22.437 36.1311 22.4535 36.0483C22.4699 35.9656 22.5105 35.8896 22.5702 35.8299L26.8906 31.5099C26.93 31.4691 26.9771 31.4366 27.0291 31.4143C27.0812 31.3919 27.1372 31.3801 27.1938 31.3796C27.2505 31.3792 27.3066 31.3899 27.3591 31.4114C27.4115 31.4329 27.4592 31.4645 27.4992 31.5046C27.5393 31.5447 27.571 31.5923 27.5924 31.6447C27.6139 31.6972 27.6247 31.7533 27.6242 31.81C27.6237 31.8667 27.6119 31.9226 27.5895 31.9747C27.5672 32.0268 27.5347 32.0738 27.4939 32.1132L23.1735 36.4332C23.134 36.4729 23.087 36.5045 23.0352 36.5259C22.9834 36.5474 22.9279 36.5584 22.8718 36.5582ZM24.5056 40.9175C24.4212 40.9174 24.3387 40.8924 24.2686 40.8455C24.1984 40.7986 24.1437 40.732 24.1115 40.6541C24.0792 40.5761 24.0707 40.4903 24.0872 40.4076C24.1036 40.3248 24.1442 40.2488 24.2039 40.1891L31.2507 33.1432C31.3312 33.0654 31.439 33.0224 31.5508 33.0234C31.6627 33.0244 31.7697 33.0693 31.8488 33.1484C31.9279 33.2275 31.9728 33.3345 31.9738 33.4464C31.9748 33.5582 31.9318 33.666 31.854 33.7465L24.8072 40.7933C24.7271 40.873 24.6186 40.9177 24.5056 40.9175ZM28.8657 42.552C28.7813 42.552 28.6988 42.527 28.6287 42.4801C28.5585 42.4332 28.5038 42.3666 28.4716 42.2886C28.4393 42.2107 28.4308 42.1249 28.4473 42.0421C28.4637 41.9594 28.5044 41.8834 28.564 41.8237L32.8844 37.5041C32.9238 37.4634 32.9709 37.4309 33.0229 37.4085C33.075 37.3861 33.131 37.3744 33.1876 37.3739C33.2443 37.3734 33.3005 37.3842 33.3529 37.4056C33.4053 37.4271 33.453 37.4588 33.493 37.4988C33.5331 37.5389 33.5648 37.5865 33.5862 37.639C33.6077 37.6914 33.6185 37.7476 33.618 37.8042C33.6175 37.8609 33.6057 37.9169 33.5834 37.9689C33.561 38.021 33.5285 38.0681 33.4877 38.1074L29.1673 42.427C29.0873 42.507 28.9788 42.552 28.8657 42.552ZM10.5608 58.0422C8.48461 58.0431 6.42814 57.6393 4.50641 56.8535C4.4185 56.8127 4.34711 56.7431 4.30398 56.6563C4.26085 56.5695 4.24855 56.4707 4.26911 56.3759C4.28967 56.2812 4.34187 56.1963 4.4171 56.1353C4.49234 56.0742 4.58613 56.0405 4.68305 56.0398C5.16298 56.0123 5.63266 55.8897 6.0648 55.6791C6.49695 55.4685 6.88295 55.1742 7.20038 54.8131C7.81553 54.1562 8.29019 53.3807 8.5953 52.534C8.90042 51.6873 9.02958 50.7873 8.97489 49.889C8.93295 48.2411 9.40133 46.6205 10.3159 45.249C10.8622 44.5531 11.5645 43.9953 12.366 43.6209C13.1676 43.2465 14.046 43.0658 14.9303 43.0935C15.0394 43.0964 15.1432 43.1409 15.2204 43.218L21.6204 49.618C21.6963 49.6935 21.7408 49.7949 21.745 49.9018C21.8304 51.8982 20.7901 53.7362 18.6547 55.3631C16.3308 57.1334 13.482 58.0763 10.5608 58.0422ZM6.20881 56.5552C8.56913 57.2507 13.6396 58.116 18.1376 54.6851C19.9773 53.2823 20.9049 51.7411 20.8968 50.0998L14.74 43.9425C14.0164 43.9477 13.3033 44.1155 12.6533 44.4336C12.0034 44.7517 11.4333 45.2119 10.9853 45.7802C10.2029 46.9979 9.80073 48.421 9.82993 49.8681C9.88821 50.8821 9.73874 51.8973 9.39068 52.8514C9.04262 53.8056 8.50331 54.6786 7.80582 55.4169C7.34738 55.8906 6.80613 56.2764 6.20881 56.5552Z" fill="#34623F"/>
  <path d="M12.3033 55.2694C12.2221 55.2693 12.1426 55.2461 12.0741 55.2024C12.0056 55.1587 11.9511 55.0964 11.9168 55.0228C11.8255 54.8265 9.72115 50.1724 12.8614 46.0547C13.7604 44.8766 14.7695 44.2144 15.8617 44.0869C15.9257 44.0794 15.9905 44.0865 16.0513 44.1076C16.1121 44.1288 16.1673 44.1634 16.2129 44.2089L20.6425 48.6403C20.6878 48.6854 20.7223 48.7401 20.7436 48.8004C20.7649 48.8606 20.7723 48.9249 20.7654 48.9884C20.6512 49.9571 20.1608 50.842 19.4001 51.4524C18.5132 52.0528 17.4611 52.3618 16.3904 52.3365C15.8536 52.3033 15.3158 52.3799 14.8096 52.5615C14.3034 52.7431 13.8396 53.026 13.4464 53.3929C13.2368 53.576 13.0657 53.7988 12.9428 54.0485C12.8199 54.2981 12.7477 54.5697 12.7304 54.8474C12.7297 54.9443 12.696 55.0381 12.6349 55.1133C12.5738 55.1885 12.4889 55.2407 12.3942 55.2613C12.3643 55.2671 12.3338 55.2698 12.3033 55.2694ZM15.7627 44.9658C14.8507 45.2123 14.0601 45.7836 13.5398 46.5722C11.6198 49.0895 11.9099 51.9055 12.2978 53.4629C12.4536 53.2184 12.6363 52.9923 12.8426 52.7887C13.3175 52.3395 13.879 51.992 14.4929 51.7674C15.1067 51.5427 15.7599 51.4457 16.4126 51.4823C17.2837 51.5049 18.1411 51.2613 18.8702 50.7838C19.3968 50.3557 19.7569 49.7567 19.8882 49.0908L15.7627 44.9658Z" fill="#34623F"/>
  <path d="M15.4909 50.3434C15.2949 50.3449 15.099 50.3348 14.9043 50.3132C14.8104 50.3012 14.7232 50.2585 14.6563 50.1916C14.5894 50.1247 14.5467 50.0375 14.5348 49.9437C14.5173 49.8046 14.1324 46.5218 16.6963 45.1253C16.7772 45.0812 16.8702 45.0645 16.9614 45.0776C17.0526 45.0908 17.1371 45.1331 17.2023 45.1983L19.6492 47.6452C19.7145 47.7103 19.7569 47.7948 19.7701 47.886C19.7833 47.9772 19.7667 48.0703 19.7226 48.1512C18.6657 50.0909 16.5281 50.3434 15.4909 50.3434ZM15.3629 49.4859C16.1079 49.5016 17.8717 49.3736 18.8095 48.0113L16.8366 46.0375C15.4743 46.9762 15.3488 48.7375 15.3621 49.4859H15.3629ZM27.8864 26.218C27.8029 26.218 27.7211 26.1935 27.6514 26.1475C27.5816 26.1014 27.5269 26.0359 27.4941 25.9591C27.4612 25.8822 27.4516 25.7974 27.4666 25.7152C27.4815 25.633 27.5202 25.5569 27.578 25.4965C28.2363 24.8063 28.9025 24.1236 29.5765 23.4485C30.2877 22.7368 31.0084 22.0405 31.7789 21.3195C31.8615 21.2421 31.9715 21.2007 32.0846 21.2045C32.1977 21.2082 32.3047 21.2567 32.382 21.3393C32.4594 21.4219 32.5007 21.5318 32.497 21.6449C32.4933 21.758 32.4448 21.865 32.3622 21.9424C31.623 22.6333 30.8954 23.3366 30.1798 24.0518C29.5106 24.7223 28.849 25.4005 28.1953 26.0862C28.1555 26.1279 28.1075 26.1611 28.0544 26.1838C28.0013 26.2064 27.9442 26.2181 27.8864 26.218ZM34.3402 20.0109C34.2533 20.0109 34.1684 19.9843 34.0969 19.9348C34.0255 19.8852 33.9709 19.815 33.9404 19.7336C33.91 19.6521 33.9051 19.5633 33.9266 19.4791C33.948 19.3948 33.9947 19.3191 34.0603 19.2621C37.4041 16.2949 41.0704 13.7123 44.9902 11.5629C45.0397 11.5365 45.0938 11.5201 45.1496 11.5147C45.2054 11.5093 45.2617 11.5149 45.3153 11.5312C45.3689 11.5475 45.4187 11.5742 45.462 11.6098C45.5053 11.6454 45.5411 11.6892 45.5675 11.7387C45.5939 11.7881 45.6102 11.8423 45.6157 11.898C45.6211 11.9538 45.6155 12.0101 45.5992 12.0637C45.5828 12.1173 45.5561 12.1672 45.5205 12.2104C45.4849 12.2537 45.4412 12.2896 45.3917 12.3159C41.5287 14.4344 37.9156 16.9796 34.6201 19.9038C34.5429 19.9723 34.4434 20.0104 34.3402 20.0109Z" fill="#34623F"/>
</svg>
