<svg xmlns="http://www.w3.org/2000/svg" width="24" height="24" viewBox="0 0 24 24" fill="none">
  <path d="M11.75 2C9.82164 2 7.93657 2.57183 6.33319 3.64317C4.72982 4.71451 3.48013 6.23726 2.74218 8.01884C2.00422 9.80042 1.81114 11.7608 2.18735 13.6521C2.56355 15.5434 3.49215 17.2807 4.85571 18.6443C6.21928 20.0079 7.95656 20.9365 9.84787 21.3127C11.7392 21.6889 13.6996 21.4958 15.4812 20.7578C17.2627 20.0199 18.7855 18.7702 19.8568 17.1668C20.9282 15.5634 21.5 13.6784 21.5 11.75C21.4973 9.16498 20.4692 6.68661 18.6413 4.85872C16.8134 3.03084 14.335 2.00273 11.75 2ZM11.75 20C10.1183 20 8.52326 19.5161 7.16655 18.6096C5.80984 17.7031 4.75242 16.4146 4.128 14.9071C3.50358 13.3996 3.3402 11.7408 3.65853 10.1405C3.97685 8.54016 4.76259 7.07015 5.91637 5.91637C7.07016 4.76259 8.54017 3.97685 10.1405 3.65852C11.7409 3.34019 13.3997 3.50357 14.9071 4.12799C16.4146 4.75242 17.7031 5.80984 18.6096 7.16655C19.5161 8.52325 20 10.1183 20 11.75C19.9975 13.9373 19.1275 16.0343 17.5809 17.5809C16.0343 19.1275 13.9373 19.9975 11.75 20ZM17.75 11.75C17.75 11.9489 17.671 12.1397 17.5303 12.2803C17.3897 12.421 17.1989 12.5 17 12.5H11.75C11.5511 12.5 11.3603 12.421 11.2197 12.2803C11.079 12.1397 11 11.9489 11 11.75V6.5C11 6.30109 11.079 6.11032 11.2197 5.96967C11.3603 5.82902 11.5511 5.75 11.75 5.75C11.9489 5.75 12.1397 5.82902 12.2803 5.96967C12.421 6.11032 12.5 6.30109 12.5 6.5V11H17C17.1989 11 17.3897 11.079 17.5303 11.2197C17.671 11.3603 17.75 11.5511 17.75 11.75Z" fill="#545454"/>
</svg>
