<svg width="32" height="32" viewBox="0 0 32 32" fill="none" xmlns="http://www.w3.org/2000/svg">
<path d="M25.7075 24.2921C25.8004 24.385 25.8741 24.4953 25.9244 24.6167C25.9747 24.7381 26.0006 24.8682 26.0006 24.9996C26.0006 25.131 25.9747 25.2611 25.9244 25.3825C25.8741 25.5039 25.8004 25.6142 25.7075 25.7071C25.6146 25.8 25.5043 25.8737 25.3829 25.924C25.2615 25.9743 25.1314 26.0001 25 26.0001C24.8686 26.0001 24.7385 25.9743 24.6171 25.924C24.4957 25.8737 24.3854 25.8 24.2925 25.7071L16 17.4133L7.70751 25.7071C7.51987 25.8947 7.26537 26.0001 7.00001 26.0001C6.73464 26.0001 6.48015 25.8947 6.29251 25.7071C6.10487 25.5194 5.99945 25.2649 5.99945 24.9996C5.99945 24.7342 6.10487 24.4797 6.29251 24.2921L14.5863 15.9996L6.29251 7.70708C6.10487 7.51944 5.99945 7.26494 5.99945 6.99958C5.99945 6.73422 6.10487 6.47972 6.29251 6.29208C6.48015 6.10444 6.73464 5.99902 7.00001 5.99902C7.26537 5.99902 7.51987 6.10444 7.70751 6.29208L16 14.5858L24.2925 6.29208C24.4801 6.10444 24.7346 5.99902 25 5.99902C25.2654 5.99902 25.5199 6.10444 25.7075 6.29208C25.8951 6.47972 26.0006 6.73422 26.0006 6.99958C26.0006 7.26494 25.8951 7.51944 25.7075 7.70708L17.4138 15.9996L25.7075 24.2921Z" fill="#282828"/>
</svg>
